G75*
%MOIN*%
%OFA0B0*%
%FSLAX25Y25*%
%IPPOS*%
%LPD*%
%AMOC8*
5,1,8,0,0,1.08239X$1,22.5*
%
%ADD10C,0.00500*%
%ADD11C,0.00400*%
D10*
X0122930Y0039850D02*
X0122930Y0044350D01*
X0122980Y0046800D02*
X0122980Y0146800D01*
X0182980Y0146800D01*
X0182980Y0046800D01*
X0122980Y0046800D01*
X0125430Y0044350D02*
X0125430Y0039850D01*
X0125430Y0042350D02*
X0122930Y0042350D01*
X0127730Y0043100D02*
X0127730Y0041100D01*
X0127732Y0041032D01*
X0127737Y0040965D01*
X0127746Y0040898D01*
X0127759Y0040831D01*
X0127776Y0040766D01*
X0127795Y0040701D01*
X0127819Y0040637D01*
X0127846Y0040575D01*
X0127876Y0040514D01*
X0127909Y0040456D01*
X0127945Y0040399D01*
X0127985Y0040344D01*
X0128027Y0040291D01*
X0128073Y0040240D01*
X0128120Y0040193D01*
X0128171Y0040147D01*
X0128224Y0040105D01*
X0128279Y0040065D01*
X0128336Y0040029D01*
X0128394Y0039996D01*
X0128455Y0039966D01*
X0128517Y0039939D01*
X0128581Y0039915D01*
X0128646Y0039896D01*
X0128711Y0039879D01*
X0128778Y0039866D01*
X0128845Y0039857D01*
X0128912Y0039852D01*
X0128980Y0039850D01*
X0130230Y0039850D01*
X0130230Y0044350D01*
X0128980Y0044350D01*
X0128912Y0044348D01*
X0128845Y0044343D01*
X0128778Y0044334D01*
X0128711Y0044321D01*
X0128646Y0044304D01*
X0128581Y0044285D01*
X0128517Y0044261D01*
X0128455Y0044234D01*
X0128394Y0044204D01*
X0128336Y0044171D01*
X0128279Y0044135D01*
X0128224Y0044095D01*
X0128171Y0044053D01*
X0128120Y0044007D01*
X0128073Y0043960D01*
X0128027Y0043909D01*
X0127985Y0043856D01*
X0127945Y0043801D01*
X0127909Y0043744D01*
X0127876Y0043686D01*
X0127846Y0043625D01*
X0127819Y0043563D01*
X0127795Y0043499D01*
X0127776Y0043434D01*
X0127759Y0043369D01*
X0127746Y0043302D01*
X0127737Y0043235D01*
X0127732Y0043168D01*
X0127730Y0043100D01*
X0133380Y0042350D02*
X0133318Y0042352D01*
X0133257Y0042358D01*
X0133196Y0042367D01*
X0133136Y0042380D01*
X0133077Y0042397D01*
X0133019Y0042418D01*
X0132962Y0042442D01*
X0132907Y0042469D01*
X0132854Y0042500D01*
X0132802Y0042534D01*
X0132753Y0042571D01*
X0132706Y0042611D01*
X0132662Y0042654D01*
X0132621Y0042699D01*
X0132582Y0042747D01*
X0132546Y0042798D01*
X0132514Y0042850D01*
X0132485Y0042904D01*
X0132459Y0042960D01*
X0132437Y0043018D01*
X0132418Y0043076D01*
X0132403Y0043136D01*
X0132392Y0043197D01*
X0132384Y0043258D01*
X0132380Y0043319D01*
X0132380Y0043381D01*
X0132384Y0043442D01*
X0132392Y0043503D01*
X0132403Y0043564D01*
X0132418Y0043624D01*
X0132437Y0043682D01*
X0132459Y0043740D01*
X0132485Y0043796D01*
X0132514Y0043850D01*
X0132546Y0043902D01*
X0132582Y0043953D01*
X0132621Y0044001D01*
X0132662Y0044046D01*
X0132706Y0044089D01*
X0132753Y0044129D01*
X0132802Y0044166D01*
X0132854Y0044200D01*
X0132907Y0044231D01*
X0132962Y0044258D01*
X0133019Y0044282D01*
X0133077Y0044303D01*
X0133136Y0044320D01*
X0133196Y0044333D01*
X0133257Y0044342D01*
X0133318Y0044348D01*
X0133380Y0044350D01*
X0134880Y0044350D01*
X0138605Y0042475D02*
X0138657Y0042508D01*
X0138708Y0042544D01*
X0138756Y0042583D01*
X0138801Y0042625D01*
X0138844Y0042670D01*
X0138884Y0042718D01*
X0138921Y0042767D01*
X0138955Y0042819D01*
X0138986Y0042873D01*
X0139014Y0042929D01*
X0139038Y0042986D01*
X0139058Y0043045D01*
X0139075Y0043104D01*
X0139088Y0043165D01*
X0139097Y0043226D01*
X0139103Y0043288D01*
X0139105Y0043350D01*
X0139103Y0043410D01*
X0139098Y0043471D01*
X0139089Y0043530D01*
X0139076Y0043589D01*
X0139060Y0043648D01*
X0139040Y0043705D01*
X0139017Y0043760D01*
X0138990Y0043815D01*
X0138961Y0043867D01*
X0138928Y0043918D01*
X0138892Y0043967D01*
X0138854Y0044013D01*
X0138812Y0044057D01*
X0138768Y0044099D01*
X0138722Y0044137D01*
X0138673Y0044173D01*
X0138622Y0044206D01*
X0138570Y0044235D01*
X0138515Y0044262D01*
X0138460Y0044285D01*
X0138403Y0044305D01*
X0138344Y0044321D01*
X0138285Y0044334D01*
X0138226Y0044343D01*
X0138165Y0044348D01*
X0138105Y0044350D01*
X0140930Y0044350D02*
X0141930Y0044350D01*
X0141430Y0044350D02*
X0141430Y0039850D01*
X0141930Y0039850D02*
X0140930Y0039850D01*
X0143520Y0039850D02*
X0145520Y0039850D01*
X0145520Y0044350D01*
X0138605Y0042475D02*
X0137230Y0041725D01*
X0137730Y0039850D02*
X0137818Y0039852D01*
X0137905Y0039857D01*
X0137993Y0039866D01*
X0138080Y0039879D01*
X0138166Y0039895D01*
X0138251Y0039915D01*
X0138336Y0039939D01*
X0138420Y0039966D01*
X0138502Y0039996D01*
X0138583Y0040030D01*
X0138663Y0040067D01*
X0138741Y0040107D01*
X0138817Y0040151D01*
X0138891Y0040198D01*
X0138963Y0040247D01*
X0139034Y0040300D01*
X0139102Y0040356D01*
X0139167Y0040414D01*
X0139230Y0040475D01*
X0137230Y0041725D02*
X0137178Y0041692D01*
X0137127Y0041656D01*
X0137079Y0041617D01*
X0137034Y0041575D01*
X0136991Y0041530D01*
X0136951Y0041482D01*
X0136914Y0041433D01*
X0136880Y0041381D01*
X0136849Y0041327D01*
X0136821Y0041271D01*
X0136797Y0041214D01*
X0136777Y0041155D01*
X0136760Y0041096D01*
X0136747Y0041035D01*
X0136738Y0040974D01*
X0136732Y0040912D01*
X0136730Y0040850D01*
X0136732Y0040790D01*
X0136737Y0040729D01*
X0136746Y0040670D01*
X0136759Y0040611D01*
X0136775Y0040552D01*
X0136795Y0040495D01*
X0136818Y0040440D01*
X0136845Y0040385D01*
X0136874Y0040333D01*
X0136907Y0040282D01*
X0136943Y0040233D01*
X0136981Y0040187D01*
X0137023Y0040143D01*
X0137067Y0040101D01*
X0137113Y0040063D01*
X0137162Y0040027D01*
X0137213Y0039994D01*
X0137265Y0039965D01*
X0137320Y0039938D01*
X0137375Y0039915D01*
X0137432Y0039895D01*
X0137491Y0039879D01*
X0137550Y0039866D01*
X0137609Y0039857D01*
X0137670Y0039852D01*
X0137730Y0039850D01*
X0136980Y0043975D02*
X0137045Y0044022D01*
X0137113Y0044066D01*
X0137182Y0044107D01*
X0137253Y0044145D01*
X0137325Y0044180D01*
X0137399Y0044212D01*
X0137474Y0044241D01*
X0137550Y0044266D01*
X0137628Y0044288D01*
X0137706Y0044307D01*
X0137785Y0044322D01*
X0137864Y0044334D01*
X0137944Y0044343D01*
X0138025Y0044348D01*
X0138105Y0044350D01*
X0134380Y0042350D02*
X0133380Y0042350D01*
X0133630Y0042350D02*
X0133561Y0042348D01*
X0133492Y0042342D01*
X0133424Y0042333D01*
X0133357Y0042320D01*
X0133290Y0042303D01*
X0133224Y0042282D01*
X0133160Y0042258D01*
X0133097Y0042230D01*
X0133035Y0042199D01*
X0132975Y0042165D01*
X0132918Y0042127D01*
X0132862Y0042086D01*
X0132809Y0042043D01*
X0132758Y0041996D01*
X0132710Y0041947D01*
X0132665Y0041895D01*
X0132623Y0041840D01*
X0132584Y0041784D01*
X0132547Y0041725D01*
X0132515Y0041664D01*
X0132485Y0041602D01*
X0132459Y0041538D01*
X0132437Y0041473D01*
X0132418Y0041407D01*
X0132403Y0041340D01*
X0132392Y0041272D01*
X0132384Y0041203D01*
X0132380Y0041134D01*
X0132380Y0041066D01*
X0132384Y0040997D01*
X0132392Y0040928D01*
X0132403Y0040860D01*
X0132418Y0040793D01*
X0132437Y0040727D01*
X0132459Y0040662D01*
X0132485Y0040598D01*
X0132515Y0040536D01*
X0132547Y0040475D01*
X0132584Y0040416D01*
X0132623Y0040360D01*
X0132665Y0040305D01*
X0132710Y0040253D01*
X0132758Y0040204D01*
X0132809Y0040157D01*
X0132862Y0040114D01*
X0132918Y0040073D01*
X0132975Y0040035D01*
X0133035Y0040001D01*
X0133097Y0039970D01*
X0133160Y0039942D01*
X0133224Y0039918D01*
X0133290Y0039897D01*
X0133357Y0039880D01*
X0133424Y0039867D01*
X0133492Y0039858D01*
X0133561Y0039852D01*
X0133630Y0039850D01*
X0134880Y0039850D01*
X0315105Y0058750D02*
X0317605Y0058750D01*
X0316355Y0058750D02*
X0316355Y0054250D01*
X0319655Y0056125D02*
X0321030Y0056875D01*
X0320530Y0058750D02*
X0320450Y0058748D01*
X0320369Y0058743D01*
X0320289Y0058734D01*
X0320210Y0058722D01*
X0320131Y0058707D01*
X0320053Y0058688D01*
X0319975Y0058666D01*
X0319899Y0058641D01*
X0319824Y0058612D01*
X0319750Y0058580D01*
X0319678Y0058545D01*
X0319607Y0058507D01*
X0319538Y0058466D01*
X0319470Y0058422D01*
X0319405Y0058375D01*
X0321030Y0056875D02*
X0321082Y0056908D01*
X0321133Y0056944D01*
X0321181Y0056983D01*
X0321226Y0057025D01*
X0321269Y0057070D01*
X0321309Y0057118D01*
X0321346Y0057167D01*
X0321380Y0057219D01*
X0321411Y0057273D01*
X0321439Y0057329D01*
X0321463Y0057386D01*
X0321483Y0057445D01*
X0321500Y0057504D01*
X0321513Y0057565D01*
X0321522Y0057626D01*
X0321528Y0057688D01*
X0321530Y0057750D01*
X0321528Y0057810D01*
X0321523Y0057871D01*
X0321514Y0057930D01*
X0321501Y0057989D01*
X0321485Y0058048D01*
X0321465Y0058105D01*
X0321442Y0058160D01*
X0321415Y0058215D01*
X0321386Y0058267D01*
X0321353Y0058318D01*
X0321317Y0058367D01*
X0321279Y0058413D01*
X0321237Y0058457D01*
X0321193Y0058499D01*
X0321147Y0058537D01*
X0321098Y0058573D01*
X0321047Y0058606D01*
X0320995Y0058635D01*
X0320940Y0058662D01*
X0320885Y0058685D01*
X0320828Y0058705D01*
X0320769Y0058721D01*
X0320710Y0058734D01*
X0320651Y0058743D01*
X0320590Y0058748D01*
X0320530Y0058750D01*
X0323505Y0057500D02*
X0323505Y0055500D01*
X0323507Y0055431D01*
X0323513Y0055362D01*
X0323522Y0055294D01*
X0323535Y0055227D01*
X0323552Y0055160D01*
X0323573Y0055094D01*
X0323597Y0055030D01*
X0323625Y0054967D01*
X0323656Y0054905D01*
X0323690Y0054845D01*
X0323728Y0054788D01*
X0323769Y0054732D01*
X0323812Y0054679D01*
X0323859Y0054628D01*
X0323908Y0054580D01*
X0323960Y0054535D01*
X0324015Y0054493D01*
X0324071Y0054454D01*
X0324130Y0054417D01*
X0324191Y0054385D01*
X0324253Y0054355D01*
X0324317Y0054329D01*
X0324382Y0054307D01*
X0324448Y0054288D01*
X0324515Y0054273D01*
X0324583Y0054262D01*
X0324652Y0054254D01*
X0324721Y0054250D01*
X0324789Y0054250D01*
X0324858Y0054254D01*
X0324927Y0054262D01*
X0324995Y0054273D01*
X0325062Y0054288D01*
X0325128Y0054307D01*
X0325193Y0054329D01*
X0325257Y0054355D01*
X0325319Y0054385D01*
X0325380Y0054417D01*
X0325439Y0054454D01*
X0325495Y0054493D01*
X0325550Y0054535D01*
X0325602Y0054580D01*
X0325651Y0054628D01*
X0325698Y0054679D01*
X0325741Y0054732D01*
X0325782Y0054788D01*
X0325820Y0054845D01*
X0325854Y0054905D01*
X0325885Y0054967D01*
X0325913Y0055030D01*
X0325937Y0055094D01*
X0325958Y0055160D01*
X0325975Y0055227D01*
X0325988Y0055294D01*
X0325997Y0055362D01*
X0326003Y0055431D01*
X0326005Y0055500D01*
X0326005Y0057500D01*
X0326003Y0057569D01*
X0325997Y0057638D01*
X0325988Y0057706D01*
X0325975Y0057773D01*
X0325958Y0057840D01*
X0325937Y0057906D01*
X0325913Y0057970D01*
X0325885Y0058033D01*
X0325854Y0058095D01*
X0325820Y0058155D01*
X0325782Y0058212D01*
X0325741Y0058268D01*
X0325698Y0058321D01*
X0325651Y0058372D01*
X0325602Y0058420D01*
X0325550Y0058465D01*
X0325495Y0058507D01*
X0325439Y0058546D01*
X0325380Y0058583D01*
X0325319Y0058615D01*
X0325257Y0058645D01*
X0325193Y0058671D01*
X0325128Y0058693D01*
X0325062Y0058712D01*
X0324995Y0058727D01*
X0324927Y0058738D01*
X0324858Y0058746D01*
X0324789Y0058750D01*
X0324721Y0058750D01*
X0324652Y0058746D01*
X0324583Y0058738D01*
X0324515Y0058727D01*
X0324448Y0058712D01*
X0324382Y0058693D01*
X0324317Y0058671D01*
X0324253Y0058645D01*
X0324191Y0058615D01*
X0324130Y0058583D01*
X0324071Y0058546D01*
X0324015Y0058507D01*
X0323960Y0058465D01*
X0323908Y0058420D01*
X0323859Y0058372D01*
X0323812Y0058321D01*
X0323769Y0058268D01*
X0323728Y0058212D01*
X0323690Y0058155D01*
X0323656Y0058095D01*
X0323625Y0058033D01*
X0323597Y0057970D01*
X0323573Y0057906D01*
X0323552Y0057840D01*
X0323535Y0057773D01*
X0323522Y0057706D01*
X0323513Y0057638D01*
X0323507Y0057569D01*
X0323505Y0057500D01*
X0321655Y0054874D02*
X0321592Y0054813D01*
X0321527Y0054755D01*
X0321459Y0054699D01*
X0321388Y0054646D01*
X0321316Y0054597D01*
X0321242Y0054550D01*
X0321166Y0054506D01*
X0321088Y0054466D01*
X0321008Y0054429D01*
X0320927Y0054395D01*
X0320845Y0054365D01*
X0320761Y0054338D01*
X0320676Y0054314D01*
X0320591Y0054294D01*
X0320505Y0054278D01*
X0320418Y0054265D01*
X0320330Y0054256D01*
X0320243Y0054251D01*
X0320155Y0054249D01*
X0320155Y0054250D02*
X0320095Y0054252D01*
X0320034Y0054257D01*
X0319975Y0054266D01*
X0319916Y0054279D01*
X0319857Y0054295D01*
X0319800Y0054315D01*
X0319745Y0054338D01*
X0319690Y0054365D01*
X0319638Y0054394D01*
X0319587Y0054427D01*
X0319538Y0054463D01*
X0319492Y0054501D01*
X0319448Y0054543D01*
X0319406Y0054587D01*
X0319368Y0054633D01*
X0319332Y0054682D01*
X0319299Y0054733D01*
X0319270Y0054785D01*
X0319243Y0054840D01*
X0319220Y0054895D01*
X0319200Y0054952D01*
X0319184Y0055011D01*
X0319171Y0055070D01*
X0319162Y0055129D01*
X0319157Y0055190D01*
X0319155Y0055250D01*
X0319157Y0055312D01*
X0319163Y0055374D01*
X0319172Y0055435D01*
X0319185Y0055496D01*
X0319202Y0055555D01*
X0319222Y0055614D01*
X0319246Y0055671D01*
X0319274Y0055727D01*
X0319305Y0055781D01*
X0319339Y0055833D01*
X0319376Y0055882D01*
X0319416Y0055930D01*
X0319459Y0055975D01*
X0319504Y0056017D01*
X0319552Y0056056D01*
X0319603Y0056092D01*
X0319655Y0056125D01*
X0328005Y0055500D02*
X0328005Y0057500D01*
X0328007Y0057569D01*
X0328013Y0057638D01*
X0328022Y0057706D01*
X0328035Y0057773D01*
X0328052Y0057840D01*
X0328073Y0057906D01*
X0328097Y0057970D01*
X0328125Y0058033D01*
X0328156Y0058095D01*
X0328190Y0058155D01*
X0328228Y0058212D01*
X0328269Y0058268D01*
X0328312Y0058321D01*
X0328359Y0058372D01*
X0328408Y0058420D01*
X0328460Y0058465D01*
X0328515Y0058507D01*
X0328571Y0058546D01*
X0328630Y0058583D01*
X0328691Y0058615D01*
X0328753Y0058645D01*
X0328817Y0058671D01*
X0328882Y0058693D01*
X0328948Y0058712D01*
X0329015Y0058727D01*
X0329083Y0058738D01*
X0329152Y0058746D01*
X0329221Y0058750D01*
X0329289Y0058750D01*
X0329358Y0058746D01*
X0329427Y0058738D01*
X0329495Y0058727D01*
X0329562Y0058712D01*
X0329628Y0058693D01*
X0329693Y0058671D01*
X0329757Y0058645D01*
X0329819Y0058615D01*
X0329880Y0058583D01*
X0329939Y0058546D01*
X0329995Y0058507D01*
X0330050Y0058465D01*
X0330102Y0058420D01*
X0330151Y0058372D01*
X0330198Y0058321D01*
X0330241Y0058268D01*
X0330282Y0058212D01*
X0330320Y0058155D01*
X0330354Y0058095D01*
X0330385Y0058033D01*
X0330413Y0057970D01*
X0330437Y0057906D01*
X0330458Y0057840D01*
X0330475Y0057773D01*
X0330488Y0057706D01*
X0330497Y0057638D01*
X0330503Y0057569D01*
X0330505Y0057500D01*
X0330505Y0055500D01*
X0330503Y0055431D01*
X0330497Y0055362D01*
X0330488Y0055294D01*
X0330475Y0055227D01*
X0330458Y0055160D01*
X0330437Y0055094D01*
X0330413Y0055030D01*
X0330385Y0054967D01*
X0330354Y0054905D01*
X0330320Y0054845D01*
X0330282Y0054788D01*
X0330241Y0054732D01*
X0330198Y0054679D01*
X0330151Y0054628D01*
X0330102Y0054580D01*
X0330050Y0054535D01*
X0329995Y0054493D01*
X0329939Y0054454D01*
X0329880Y0054417D01*
X0329819Y0054385D01*
X0329757Y0054355D01*
X0329693Y0054329D01*
X0329628Y0054307D01*
X0329562Y0054288D01*
X0329495Y0054273D01*
X0329427Y0054262D01*
X0329358Y0054254D01*
X0329289Y0054250D01*
X0329221Y0054250D01*
X0329152Y0054254D01*
X0329083Y0054262D01*
X0329015Y0054273D01*
X0328948Y0054288D01*
X0328882Y0054307D01*
X0328817Y0054329D01*
X0328753Y0054355D01*
X0328691Y0054385D01*
X0328630Y0054417D01*
X0328571Y0054454D01*
X0328515Y0054493D01*
X0328460Y0054535D01*
X0328408Y0054580D01*
X0328359Y0054628D01*
X0328312Y0054679D01*
X0328269Y0054732D01*
X0328228Y0054788D01*
X0328190Y0054845D01*
X0328156Y0054905D01*
X0328125Y0054967D01*
X0328097Y0055030D01*
X0328073Y0055094D01*
X0328052Y0055160D01*
X0328035Y0055227D01*
X0328022Y0055294D01*
X0328013Y0055362D01*
X0328007Y0055431D01*
X0328005Y0055500D01*
X0333530Y0056750D02*
X0333461Y0056748D01*
X0333392Y0056742D01*
X0333324Y0056733D01*
X0333257Y0056720D01*
X0333190Y0056703D01*
X0333124Y0056682D01*
X0333060Y0056658D01*
X0332997Y0056630D01*
X0332935Y0056599D01*
X0332875Y0056565D01*
X0332818Y0056527D01*
X0332762Y0056486D01*
X0332709Y0056443D01*
X0332658Y0056396D01*
X0332610Y0056347D01*
X0332565Y0056295D01*
X0332523Y0056240D01*
X0332484Y0056184D01*
X0332447Y0056125D01*
X0332415Y0056064D01*
X0332385Y0056002D01*
X0332359Y0055938D01*
X0332337Y0055873D01*
X0332318Y0055807D01*
X0332303Y0055740D01*
X0332292Y0055672D01*
X0332284Y0055603D01*
X0332280Y0055534D01*
X0332280Y0055466D01*
X0332284Y0055397D01*
X0332292Y0055328D01*
X0332303Y0055260D01*
X0332318Y0055193D01*
X0332337Y0055127D01*
X0332359Y0055062D01*
X0332385Y0054998D01*
X0332415Y0054936D01*
X0332447Y0054875D01*
X0332484Y0054816D01*
X0332523Y0054760D01*
X0332565Y0054705D01*
X0332610Y0054653D01*
X0332658Y0054604D01*
X0332709Y0054557D01*
X0332762Y0054514D01*
X0332818Y0054473D01*
X0332875Y0054435D01*
X0332935Y0054401D01*
X0332997Y0054370D01*
X0333060Y0054342D01*
X0333124Y0054318D01*
X0333190Y0054297D01*
X0333257Y0054280D01*
X0333324Y0054267D01*
X0333392Y0054258D01*
X0333461Y0054252D01*
X0333530Y0054250D01*
X0334780Y0054250D01*
X0334780Y0058750D01*
X0333530Y0058750D01*
X0333468Y0058748D01*
X0333407Y0058742D01*
X0333346Y0058733D01*
X0333286Y0058720D01*
X0333227Y0058703D01*
X0333169Y0058682D01*
X0333112Y0058658D01*
X0333057Y0058631D01*
X0333004Y0058600D01*
X0332952Y0058566D01*
X0332903Y0058529D01*
X0332856Y0058489D01*
X0332812Y0058446D01*
X0332771Y0058401D01*
X0332732Y0058353D01*
X0332696Y0058302D01*
X0332664Y0058250D01*
X0332635Y0058196D01*
X0332609Y0058140D01*
X0332587Y0058082D01*
X0332568Y0058024D01*
X0332553Y0057964D01*
X0332542Y0057903D01*
X0332534Y0057842D01*
X0332530Y0057781D01*
X0332530Y0057719D01*
X0332534Y0057658D01*
X0332542Y0057597D01*
X0332553Y0057536D01*
X0332568Y0057476D01*
X0332587Y0057418D01*
X0332609Y0057360D01*
X0332635Y0057304D01*
X0332664Y0057250D01*
X0332696Y0057198D01*
X0332732Y0057147D01*
X0332771Y0057099D01*
X0332812Y0057054D01*
X0332856Y0057011D01*
X0332903Y0056971D01*
X0332952Y0056934D01*
X0333004Y0056900D01*
X0333057Y0056869D01*
X0333112Y0056842D01*
X0333169Y0056818D01*
X0333227Y0056797D01*
X0333286Y0056780D01*
X0333346Y0056767D01*
X0333407Y0056758D01*
X0333468Y0056752D01*
X0333530Y0056750D01*
X0334780Y0056750D01*
X0337972Y0056250D02*
X0336972Y0054250D01*
X0338222Y0056250D02*
X0339472Y0056250D01*
X0338222Y0056250D02*
X0338153Y0056252D01*
X0338084Y0056258D01*
X0338016Y0056267D01*
X0337949Y0056280D01*
X0337882Y0056297D01*
X0337816Y0056318D01*
X0337752Y0056342D01*
X0337689Y0056370D01*
X0337627Y0056401D01*
X0337567Y0056435D01*
X0337510Y0056473D01*
X0337454Y0056514D01*
X0337401Y0056557D01*
X0337350Y0056604D01*
X0337302Y0056653D01*
X0337257Y0056705D01*
X0337215Y0056760D01*
X0337176Y0056816D01*
X0337139Y0056875D01*
X0337107Y0056936D01*
X0337077Y0056998D01*
X0337051Y0057062D01*
X0337029Y0057127D01*
X0337010Y0057193D01*
X0336995Y0057260D01*
X0336984Y0057328D01*
X0336976Y0057397D01*
X0336972Y0057466D01*
X0336972Y0057534D01*
X0336976Y0057603D01*
X0336984Y0057672D01*
X0336995Y0057740D01*
X0337010Y0057807D01*
X0337029Y0057873D01*
X0337051Y0057938D01*
X0337077Y0058002D01*
X0337107Y0058064D01*
X0337139Y0058125D01*
X0337176Y0058184D01*
X0337215Y0058240D01*
X0337257Y0058295D01*
X0337302Y0058347D01*
X0337350Y0058396D01*
X0337401Y0058443D01*
X0337454Y0058486D01*
X0337510Y0058527D01*
X0337567Y0058565D01*
X0337627Y0058599D01*
X0337689Y0058630D01*
X0337752Y0058658D01*
X0337816Y0058682D01*
X0337882Y0058703D01*
X0337949Y0058720D01*
X0338016Y0058733D01*
X0338084Y0058742D01*
X0338153Y0058748D01*
X0338222Y0058750D01*
X0339472Y0058750D01*
X0339472Y0054250D01*
X0341395Y0054250D02*
X0343395Y0054250D01*
X0343395Y0058750D01*
X0341395Y0058750D01*
X0341895Y0056750D02*
X0343395Y0056750D01*
X0345405Y0058750D02*
X0346405Y0054250D01*
X0347405Y0057250D01*
X0348405Y0054250D01*
X0349405Y0058750D01*
X0351255Y0057500D02*
X0351255Y0055500D01*
X0351257Y0055431D01*
X0351263Y0055362D01*
X0351272Y0055294D01*
X0351285Y0055227D01*
X0351302Y0055160D01*
X0351323Y0055094D01*
X0351347Y0055030D01*
X0351375Y0054967D01*
X0351406Y0054905D01*
X0351440Y0054845D01*
X0351478Y0054788D01*
X0351519Y0054732D01*
X0351562Y0054679D01*
X0351609Y0054628D01*
X0351658Y0054580D01*
X0351710Y0054535D01*
X0351765Y0054493D01*
X0351821Y0054454D01*
X0351880Y0054417D01*
X0351941Y0054385D01*
X0352003Y0054355D01*
X0352067Y0054329D01*
X0352132Y0054307D01*
X0352198Y0054288D01*
X0352265Y0054273D01*
X0352333Y0054262D01*
X0352402Y0054254D01*
X0352471Y0054250D01*
X0352539Y0054250D01*
X0352608Y0054254D01*
X0352677Y0054262D01*
X0352745Y0054273D01*
X0352812Y0054288D01*
X0352878Y0054307D01*
X0352943Y0054329D01*
X0353007Y0054355D01*
X0353069Y0054385D01*
X0353130Y0054417D01*
X0353189Y0054454D01*
X0353245Y0054493D01*
X0353300Y0054535D01*
X0353352Y0054580D01*
X0353401Y0054628D01*
X0353448Y0054679D01*
X0353491Y0054732D01*
X0353532Y0054788D01*
X0353570Y0054845D01*
X0353604Y0054905D01*
X0353635Y0054967D01*
X0353663Y0055030D01*
X0353687Y0055094D01*
X0353708Y0055160D01*
X0353725Y0055227D01*
X0353738Y0055294D01*
X0353747Y0055362D01*
X0353753Y0055431D01*
X0353755Y0055500D01*
X0353755Y0057500D01*
X0353753Y0057569D01*
X0353747Y0057638D01*
X0353738Y0057706D01*
X0353725Y0057773D01*
X0353708Y0057840D01*
X0353687Y0057906D01*
X0353663Y0057970D01*
X0353635Y0058033D01*
X0353604Y0058095D01*
X0353570Y0058155D01*
X0353532Y0058212D01*
X0353491Y0058268D01*
X0353448Y0058321D01*
X0353401Y0058372D01*
X0353352Y0058420D01*
X0353300Y0058465D01*
X0353245Y0058507D01*
X0353189Y0058546D01*
X0353130Y0058583D01*
X0353069Y0058615D01*
X0353007Y0058645D01*
X0352943Y0058671D01*
X0352878Y0058693D01*
X0352812Y0058712D01*
X0352745Y0058727D01*
X0352677Y0058738D01*
X0352608Y0058746D01*
X0352539Y0058750D01*
X0352471Y0058750D01*
X0352402Y0058746D01*
X0352333Y0058738D01*
X0352265Y0058727D01*
X0352198Y0058712D01*
X0352132Y0058693D01*
X0352067Y0058671D01*
X0352003Y0058645D01*
X0351941Y0058615D01*
X0351880Y0058583D01*
X0351821Y0058546D01*
X0351765Y0058507D01*
X0351710Y0058465D01*
X0351658Y0058420D01*
X0351609Y0058372D01*
X0351562Y0058321D01*
X0351519Y0058268D01*
X0351478Y0058212D01*
X0351440Y0058155D01*
X0351406Y0058095D01*
X0351375Y0058033D01*
X0351347Y0057970D01*
X0351323Y0057906D01*
X0351302Y0057840D01*
X0351285Y0057773D01*
X0351272Y0057706D01*
X0351263Y0057638D01*
X0351257Y0057569D01*
X0351255Y0057500D01*
X0356780Y0058750D02*
X0356711Y0058748D01*
X0356642Y0058742D01*
X0356574Y0058733D01*
X0356507Y0058720D01*
X0356440Y0058703D01*
X0356374Y0058682D01*
X0356310Y0058658D01*
X0356247Y0058630D01*
X0356185Y0058599D01*
X0356125Y0058565D01*
X0356068Y0058527D01*
X0356012Y0058486D01*
X0355959Y0058443D01*
X0355908Y0058396D01*
X0355860Y0058347D01*
X0355815Y0058295D01*
X0355773Y0058240D01*
X0355734Y0058184D01*
X0355697Y0058125D01*
X0355665Y0058064D01*
X0355635Y0058002D01*
X0355609Y0057938D01*
X0355587Y0057873D01*
X0355568Y0057807D01*
X0355553Y0057740D01*
X0355542Y0057672D01*
X0355534Y0057603D01*
X0355530Y0057534D01*
X0355530Y0057466D01*
X0355534Y0057397D01*
X0355542Y0057328D01*
X0355553Y0057260D01*
X0355568Y0057193D01*
X0355587Y0057127D01*
X0355609Y0057062D01*
X0355635Y0056998D01*
X0355665Y0056936D01*
X0355697Y0056875D01*
X0355734Y0056816D01*
X0355773Y0056760D01*
X0355815Y0056705D01*
X0355860Y0056653D01*
X0355908Y0056604D01*
X0355959Y0056557D01*
X0356012Y0056514D01*
X0356068Y0056473D01*
X0356125Y0056435D01*
X0356185Y0056401D01*
X0356247Y0056370D01*
X0356310Y0056342D01*
X0356374Y0056318D01*
X0356440Y0056297D01*
X0356507Y0056280D01*
X0356574Y0056267D01*
X0356642Y0056258D01*
X0356711Y0056252D01*
X0356780Y0056250D01*
X0358030Y0056250D01*
X0358030Y0054250D02*
X0358030Y0058750D01*
X0356780Y0058750D01*
D11*
X0167780Y0108278D02*
X0167780Y0111600D01*
X0165224Y0111600D02*
X0165224Y0108278D01*
X0165226Y0108208D01*
X0165232Y0108137D01*
X0165241Y0108068D01*
X0165255Y0107999D01*
X0165272Y0107930D01*
X0165293Y0107863D01*
X0165318Y0107797D01*
X0165346Y0107733D01*
X0165378Y0107670D01*
X0165413Y0107609D01*
X0165452Y0107550D01*
X0165493Y0107493D01*
X0165538Y0107439D01*
X0165586Y0107387D01*
X0165636Y0107338D01*
X0165690Y0107291D01*
X0165745Y0107248D01*
X0165803Y0107208D01*
X0165863Y0107171D01*
X0165925Y0107138D01*
X0165989Y0107108D01*
X0166054Y0107081D01*
X0166120Y0107058D01*
X0166188Y0107039D01*
X0166257Y0107024D01*
X0166326Y0107012D01*
X0166396Y0107004D01*
X0166467Y0107000D01*
X0166537Y0107000D01*
X0166608Y0107004D01*
X0166678Y0107012D01*
X0166747Y0107024D01*
X0166816Y0107039D01*
X0166884Y0107058D01*
X0166950Y0107081D01*
X0167015Y0107108D01*
X0167079Y0107138D01*
X0167141Y0107171D01*
X0167201Y0107208D01*
X0167259Y0107248D01*
X0167314Y0107291D01*
X0167368Y0107338D01*
X0167418Y0107387D01*
X0167466Y0107439D01*
X0167511Y0107493D01*
X0167552Y0107550D01*
X0167591Y0107609D01*
X0167626Y0107670D01*
X0167658Y0107733D01*
X0167686Y0107797D01*
X0167711Y0107863D01*
X0167732Y0107930D01*
X0167749Y0107999D01*
X0167763Y0108068D01*
X0167772Y0108137D01*
X0167778Y0108208D01*
X0167780Y0108278D01*
X0162791Y0109683D02*
X0162152Y0109300D01*
X0161513Y0108917D01*
X0161130Y0110833D02*
X0161205Y0110876D01*
X0161281Y0110915D01*
X0161359Y0110952D01*
X0161438Y0110984D01*
X0161519Y0111014D01*
X0161601Y0111040D01*
X0161684Y0111062D01*
X0161768Y0111081D01*
X0161852Y0111097D01*
X0161937Y0111108D01*
X0162023Y0111116D01*
X0162108Y0111121D01*
X0162194Y0111122D01*
X0162280Y0111119D01*
X0162366Y0111113D01*
X0162451Y0111103D01*
X0162536Y0111089D01*
X0162152Y0111600D02*
X0162152Y0107000D01*
X0161769Y0107511D02*
X0161716Y0107523D01*
X0161664Y0107538D01*
X0161613Y0107558D01*
X0161564Y0107580D01*
X0161516Y0107606D01*
X0161470Y0107636D01*
X0161427Y0107668D01*
X0161386Y0107704D01*
X0161347Y0107742D01*
X0161312Y0107783D01*
X0161279Y0107827D01*
X0161250Y0107872D01*
X0161224Y0107920D01*
X0161201Y0107970D01*
X0161182Y0108020D01*
X0161167Y0108072D01*
X0161155Y0108126D01*
X0161148Y0108179D01*
X0161144Y0108233D01*
X0161143Y0108288D01*
X0161147Y0108342D01*
X0161155Y0108396D01*
X0161166Y0108449D01*
X0161181Y0108501D01*
X0161200Y0108552D01*
X0161223Y0108601D01*
X0161248Y0108649D01*
X0161278Y0108695D01*
X0161310Y0108738D01*
X0161345Y0108780D01*
X0161384Y0108818D01*
X0161425Y0108854D01*
X0161468Y0108887D01*
X0161513Y0108916D01*
X0161769Y0107511D02*
X0161854Y0107497D01*
X0161939Y0107487D01*
X0162025Y0107481D01*
X0162111Y0107478D01*
X0162197Y0107479D01*
X0162282Y0107484D01*
X0162368Y0107492D01*
X0162453Y0107503D01*
X0162537Y0107519D01*
X0162621Y0107538D01*
X0162704Y0107560D01*
X0162786Y0107586D01*
X0162867Y0107616D01*
X0162946Y0107648D01*
X0163024Y0107685D01*
X0163100Y0107724D01*
X0163175Y0107767D01*
X0159230Y0107000D02*
X0156674Y0107000D01*
X0155864Y0105683D02*
X0155898Y0105629D01*
X0155935Y0105578D01*
X0155975Y0105529D01*
X0156018Y0105482D01*
X0156064Y0105439D01*
X0156112Y0105398D01*
X0156163Y0105360D01*
X0156216Y0105325D01*
X0156271Y0105293D01*
X0156328Y0105265D01*
X0156386Y0105241D01*
X0156446Y0105220D01*
X0156507Y0105203D01*
X0156569Y0105189D01*
X0156632Y0105180D01*
X0156695Y0105174D01*
X0156758Y0105172D01*
X0156820Y0105174D01*
X0156881Y0105179D01*
X0156942Y0105189D01*
X0157003Y0105202D01*
X0157062Y0105218D01*
X0157120Y0105238D01*
X0157177Y0105262D01*
X0157233Y0105289D01*
X0157287Y0105319D01*
X0157339Y0105353D01*
X0157388Y0105390D01*
X0157436Y0105429D01*
X0157481Y0105471D01*
X0157523Y0105516D01*
X0157563Y0105564D01*
X0157599Y0105613D01*
X0157633Y0105665D01*
X0157663Y0105719D01*
X0157690Y0105775D01*
X0157714Y0105832D01*
X0157734Y0105890D01*
X0157750Y0105949D01*
X0157763Y0106010D01*
X0157773Y0106071D01*
X0157778Y0106132D01*
X0157780Y0106194D01*
X0157952Y0107000D02*
X0157952Y0111600D01*
X0159230Y0110578D01*
X0157780Y0110372D02*
X0153180Y0110372D01*
X0153180Y0113039D02*
X0157780Y0114572D01*
X0153180Y0116106D01*
X0154330Y0115722D02*
X0154330Y0113422D01*
X0157780Y0111650D02*
X0157780Y0109094D01*
X0155097Y0107089D02*
X0155863Y0105683D01*
X0157780Y0106194D02*
X0157778Y0106276D01*
X0157773Y0106358D01*
X0157764Y0106440D01*
X0157752Y0106521D01*
X0157736Y0106602D01*
X0157717Y0106682D01*
X0157694Y0106761D01*
X0157668Y0106839D01*
X0157639Y0106916D01*
X0157606Y0106991D01*
X0157570Y0107065D01*
X0157532Y0107138D01*
X0157490Y0107209D01*
X0157445Y0107277D01*
X0157397Y0107344D01*
X0153819Y0105045D02*
X0153756Y0105109D01*
X0153697Y0105177D01*
X0153640Y0105246D01*
X0153586Y0105318D01*
X0153535Y0105392D01*
X0153487Y0105468D01*
X0153443Y0105545D01*
X0153402Y0105625D01*
X0153364Y0105706D01*
X0153329Y0105789D01*
X0153298Y0105873D01*
X0153271Y0105959D01*
X0153247Y0106045D01*
X0153226Y0106133D01*
X0153210Y0106221D01*
X0153197Y0106310D01*
X0153187Y0106399D01*
X0153182Y0106488D01*
X0153180Y0106578D01*
X0153182Y0106640D01*
X0153187Y0106701D01*
X0153197Y0106762D01*
X0153210Y0106823D01*
X0153226Y0106882D01*
X0153246Y0106940D01*
X0153270Y0106997D01*
X0153297Y0107053D01*
X0153327Y0107107D01*
X0153361Y0107159D01*
X0153397Y0107208D01*
X0153437Y0107256D01*
X0153479Y0107301D01*
X0153524Y0107343D01*
X0153572Y0107383D01*
X0153621Y0107419D01*
X0153673Y0107453D01*
X0153727Y0107483D01*
X0153783Y0107510D01*
X0153840Y0107534D01*
X0153898Y0107554D01*
X0153957Y0107570D01*
X0154018Y0107583D01*
X0154079Y0107593D01*
X0154140Y0107598D01*
X0154202Y0107600D01*
X0154265Y0107598D01*
X0154328Y0107592D01*
X0154391Y0107583D01*
X0154453Y0107569D01*
X0154514Y0107552D01*
X0154574Y0107531D01*
X0154632Y0107507D01*
X0154689Y0107479D01*
X0154744Y0107447D01*
X0154797Y0107412D01*
X0154848Y0107374D01*
X0154896Y0107333D01*
X0154942Y0107290D01*
X0154985Y0107243D01*
X0155025Y0107194D01*
X0155062Y0107143D01*
X0155096Y0107089D01*
X0154330Y0103122D02*
X0154330Y0100822D01*
X0153180Y0100439D02*
X0157780Y0101972D01*
X0153180Y0103506D01*
X0154969Y0098706D02*
X0154969Y0095639D01*
X0154458Y0093500D02*
X0157780Y0093500D01*
X0157780Y0090945D02*
X0154458Y0090945D01*
X0154458Y0090944D02*
X0154388Y0090946D01*
X0154317Y0090952D01*
X0154248Y0090961D01*
X0154179Y0090975D01*
X0154110Y0090992D01*
X0154043Y0091013D01*
X0153977Y0091038D01*
X0153913Y0091066D01*
X0153850Y0091098D01*
X0153789Y0091133D01*
X0153730Y0091172D01*
X0153673Y0091213D01*
X0153619Y0091258D01*
X0153567Y0091306D01*
X0153518Y0091356D01*
X0153471Y0091410D01*
X0153428Y0091465D01*
X0153388Y0091523D01*
X0153351Y0091583D01*
X0153318Y0091645D01*
X0153288Y0091709D01*
X0153261Y0091774D01*
X0153238Y0091840D01*
X0153219Y0091908D01*
X0153204Y0091977D01*
X0153192Y0092046D01*
X0153184Y0092116D01*
X0153180Y0092187D01*
X0153180Y0092257D01*
X0153184Y0092328D01*
X0153192Y0092398D01*
X0153204Y0092467D01*
X0153219Y0092536D01*
X0153238Y0092604D01*
X0153261Y0092670D01*
X0153288Y0092735D01*
X0153318Y0092799D01*
X0153351Y0092861D01*
X0153388Y0092921D01*
X0153428Y0092979D01*
X0153471Y0093034D01*
X0153518Y0093088D01*
X0153567Y0093138D01*
X0153619Y0093186D01*
X0153673Y0093231D01*
X0153730Y0093272D01*
X0153789Y0093311D01*
X0153850Y0093346D01*
X0153913Y0093378D01*
X0153977Y0093406D01*
X0154043Y0093431D01*
X0154110Y0093452D01*
X0154179Y0093469D01*
X0154248Y0093483D01*
X0154317Y0093492D01*
X0154388Y0093498D01*
X0154458Y0093500D01*
X0153180Y0089098D02*
X0153180Y0087053D01*
X0157780Y0087053D01*
X0156502Y0084950D02*
X0154458Y0084950D01*
X0154388Y0084948D01*
X0154317Y0084942D01*
X0154248Y0084933D01*
X0154179Y0084919D01*
X0154110Y0084902D01*
X0154043Y0084881D01*
X0153977Y0084856D01*
X0153913Y0084828D01*
X0153850Y0084796D01*
X0153789Y0084761D01*
X0153730Y0084722D01*
X0153673Y0084681D01*
X0153619Y0084636D01*
X0153567Y0084588D01*
X0153518Y0084538D01*
X0153471Y0084484D01*
X0153428Y0084429D01*
X0153388Y0084371D01*
X0153351Y0084311D01*
X0153318Y0084249D01*
X0153288Y0084185D01*
X0153261Y0084120D01*
X0153238Y0084054D01*
X0153219Y0083986D01*
X0153204Y0083917D01*
X0153192Y0083848D01*
X0153184Y0083778D01*
X0153180Y0083707D01*
X0153180Y0083637D01*
X0153184Y0083566D01*
X0153192Y0083496D01*
X0153204Y0083427D01*
X0153219Y0083358D01*
X0153238Y0083290D01*
X0153261Y0083224D01*
X0153288Y0083159D01*
X0153318Y0083095D01*
X0153351Y0083033D01*
X0153388Y0082973D01*
X0153428Y0082915D01*
X0153471Y0082860D01*
X0153518Y0082806D01*
X0153567Y0082756D01*
X0153619Y0082708D01*
X0153673Y0082663D01*
X0153730Y0082622D01*
X0153789Y0082583D01*
X0153850Y0082548D01*
X0153913Y0082516D01*
X0153977Y0082488D01*
X0154043Y0082463D01*
X0154110Y0082442D01*
X0154179Y0082425D01*
X0154248Y0082411D01*
X0154317Y0082402D01*
X0154388Y0082396D01*
X0154458Y0082394D01*
X0154458Y0082395D02*
X0156502Y0082395D01*
X0156502Y0082394D02*
X0156572Y0082396D01*
X0156643Y0082402D01*
X0156712Y0082411D01*
X0156781Y0082425D01*
X0156850Y0082442D01*
X0156917Y0082463D01*
X0156983Y0082488D01*
X0157047Y0082516D01*
X0157110Y0082548D01*
X0157171Y0082583D01*
X0157230Y0082622D01*
X0157287Y0082663D01*
X0157341Y0082708D01*
X0157393Y0082756D01*
X0157442Y0082806D01*
X0157489Y0082860D01*
X0157532Y0082915D01*
X0157572Y0082973D01*
X0157609Y0083033D01*
X0157642Y0083095D01*
X0157672Y0083159D01*
X0157699Y0083224D01*
X0157722Y0083290D01*
X0157741Y0083358D01*
X0157756Y0083427D01*
X0157768Y0083496D01*
X0157776Y0083566D01*
X0157780Y0083637D01*
X0157780Y0083707D01*
X0157776Y0083778D01*
X0157768Y0083848D01*
X0157756Y0083917D01*
X0157741Y0083986D01*
X0157722Y0084054D01*
X0157699Y0084120D01*
X0157672Y0084185D01*
X0157642Y0084249D01*
X0157609Y0084311D01*
X0157572Y0084371D01*
X0157532Y0084429D01*
X0157489Y0084484D01*
X0157442Y0084538D01*
X0157393Y0084588D01*
X0157341Y0084636D01*
X0157287Y0084681D01*
X0157230Y0084722D01*
X0157171Y0084761D01*
X0157110Y0084796D01*
X0157047Y0084828D01*
X0156983Y0084856D01*
X0156917Y0084881D01*
X0156850Y0084902D01*
X0156781Y0084919D01*
X0156712Y0084933D01*
X0156643Y0084942D01*
X0156572Y0084948D01*
X0156502Y0084950D01*
X0153180Y0080698D02*
X0153180Y0078653D01*
X0157780Y0078653D01*
X0156502Y0076550D02*
X0154458Y0076550D01*
X0154388Y0076548D01*
X0154317Y0076542D01*
X0154248Y0076533D01*
X0154179Y0076519D01*
X0154110Y0076502D01*
X0154043Y0076481D01*
X0153977Y0076456D01*
X0153913Y0076428D01*
X0153850Y0076396D01*
X0153789Y0076361D01*
X0153730Y0076322D01*
X0153673Y0076281D01*
X0153619Y0076236D01*
X0153567Y0076188D01*
X0153518Y0076138D01*
X0153471Y0076084D01*
X0153428Y0076029D01*
X0153388Y0075971D01*
X0153351Y0075911D01*
X0153318Y0075849D01*
X0153288Y0075785D01*
X0153261Y0075720D01*
X0153238Y0075654D01*
X0153219Y0075586D01*
X0153204Y0075517D01*
X0153192Y0075448D01*
X0153184Y0075378D01*
X0153180Y0075307D01*
X0153180Y0075237D01*
X0153184Y0075166D01*
X0153192Y0075096D01*
X0153204Y0075027D01*
X0153219Y0074958D01*
X0153238Y0074890D01*
X0153261Y0074824D01*
X0153288Y0074759D01*
X0153318Y0074695D01*
X0153351Y0074633D01*
X0153388Y0074573D01*
X0153428Y0074515D01*
X0153471Y0074460D01*
X0153518Y0074406D01*
X0153567Y0074356D01*
X0153619Y0074308D01*
X0153673Y0074263D01*
X0153730Y0074222D01*
X0153789Y0074183D01*
X0153850Y0074148D01*
X0153913Y0074116D01*
X0153977Y0074088D01*
X0154043Y0074063D01*
X0154110Y0074042D01*
X0154179Y0074025D01*
X0154248Y0074011D01*
X0154317Y0074002D01*
X0154388Y0073996D01*
X0154458Y0073994D01*
X0154458Y0073995D02*
X0156502Y0073995D01*
X0156502Y0073994D02*
X0156572Y0073996D01*
X0156643Y0074002D01*
X0156712Y0074011D01*
X0156781Y0074025D01*
X0156850Y0074042D01*
X0156917Y0074063D01*
X0156983Y0074088D01*
X0157047Y0074116D01*
X0157110Y0074148D01*
X0157171Y0074183D01*
X0157230Y0074222D01*
X0157287Y0074263D01*
X0157341Y0074308D01*
X0157393Y0074356D01*
X0157442Y0074406D01*
X0157489Y0074460D01*
X0157532Y0074515D01*
X0157572Y0074573D01*
X0157609Y0074633D01*
X0157642Y0074695D01*
X0157672Y0074759D01*
X0157699Y0074824D01*
X0157722Y0074890D01*
X0157741Y0074958D01*
X0157756Y0075027D01*
X0157768Y0075096D01*
X0157776Y0075166D01*
X0157780Y0075237D01*
X0157780Y0075307D01*
X0157776Y0075378D01*
X0157768Y0075448D01*
X0157756Y0075517D01*
X0157741Y0075586D01*
X0157722Y0075654D01*
X0157699Y0075720D01*
X0157672Y0075785D01*
X0157642Y0075849D01*
X0157609Y0075911D01*
X0157572Y0075971D01*
X0157532Y0076029D01*
X0157489Y0076084D01*
X0157442Y0076138D01*
X0157393Y0076188D01*
X0157341Y0076236D01*
X0157287Y0076281D01*
X0157230Y0076322D01*
X0157171Y0076361D01*
X0157110Y0076396D01*
X0157047Y0076428D01*
X0156983Y0076456D01*
X0156917Y0076481D01*
X0156850Y0076502D01*
X0156781Y0076519D01*
X0156712Y0076533D01*
X0156643Y0076542D01*
X0156572Y0076548D01*
X0156502Y0076550D01*
X0157780Y0070989D02*
X0157778Y0071059D01*
X0157772Y0071130D01*
X0157763Y0071199D01*
X0157749Y0071268D01*
X0157732Y0071337D01*
X0157711Y0071404D01*
X0157686Y0071470D01*
X0157658Y0071534D01*
X0157626Y0071597D01*
X0157591Y0071658D01*
X0157552Y0071717D01*
X0157511Y0071774D01*
X0157466Y0071828D01*
X0157418Y0071880D01*
X0157368Y0071929D01*
X0157314Y0071976D01*
X0157259Y0072019D01*
X0157201Y0072059D01*
X0157141Y0072096D01*
X0157079Y0072129D01*
X0157015Y0072159D01*
X0156950Y0072186D01*
X0156884Y0072209D01*
X0156816Y0072228D01*
X0156747Y0072243D01*
X0156678Y0072255D01*
X0156608Y0072263D01*
X0156537Y0072267D01*
X0156467Y0072267D01*
X0156396Y0072263D01*
X0156326Y0072255D01*
X0156257Y0072243D01*
X0156188Y0072228D01*
X0156120Y0072209D01*
X0156054Y0072186D01*
X0155989Y0072159D01*
X0155925Y0072129D01*
X0155863Y0072096D01*
X0155803Y0072059D01*
X0155745Y0072019D01*
X0155690Y0071976D01*
X0155636Y0071929D01*
X0155586Y0071880D01*
X0155538Y0071828D01*
X0155493Y0071774D01*
X0155452Y0071717D01*
X0155413Y0071658D01*
X0155378Y0071597D01*
X0155346Y0071534D01*
X0155318Y0071470D01*
X0155293Y0071404D01*
X0155272Y0071337D01*
X0155255Y0071268D01*
X0155241Y0071199D01*
X0155232Y0071130D01*
X0155226Y0071059D01*
X0155224Y0070989D01*
X0155224Y0069711D01*
X0153180Y0069711D02*
X0157780Y0069711D01*
X0157780Y0070989D01*
X0162791Y0109684D02*
X0162836Y0109713D01*
X0162879Y0109746D01*
X0162920Y0109782D01*
X0162959Y0109820D01*
X0162994Y0109862D01*
X0163026Y0109905D01*
X0163056Y0109951D01*
X0163081Y0109999D01*
X0163104Y0110048D01*
X0163123Y0110099D01*
X0163138Y0110151D01*
X0163149Y0110204D01*
X0163157Y0110258D01*
X0163161Y0110312D01*
X0163160Y0110367D01*
X0163156Y0110421D01*
X0163149Y0110474D01*
X0163137Y0110528D01*
X0163122Y0110580D01*
X0163103Y0110630D01*
X0163080Y0110680D01*
X0163054Y0110728D01*
X0163025Y0110773D01*
X0162992Y0110817D01*
X0162957Y0110858D01*
X0162918Y0110896D01*
X0162877Y0110932D01*
X0162834Y0110964D01*
X0162788Y0110994D01*
X0162740Y0111020D01*
X0162691Y0111042D01*
X0162640Y0111062D01*
X0162588Y0111077D01*
X0162535Y0111089D01*
X0157780Y0117973D02*
X0153180Y0117973D01*
X0155224Y0117973D02*
X0155224Y0119251D01*
X0155224Y0119507D02*
X0153180Y0120529D01*
X0154969Y0122489D02*
X0154969Y0125556D01*
X0153180Y0127739D02*
X0157780Y0127739D01*
X0155224Y0129272D01*
X0157780Y0130806D01*
X0153180Y0130806D01*
X0153180Y0132811D02*
X0153180Y0133833D01*
X0153180Y0133322D02*
X0157780Y0133322D01*
X0157780Y0132811D02*
X0157780Y0133833D01*
X0156758Y0135631D02*
X0154202Y0135631D01*
X0154202Y0135632D02*
X0154140Y0135634D01*
X0154079Y0135639D01*
X0154018Y0135649D01*
X0153957Y0135662D01*
X0153898Y0135678D01*
X0153840Y0135698D01*
X0153783Y0135722D01*
X0153727Y0135749D01*
X0153673Y0135779D01*
X0153621Y0135813D01*
X0153572Y0135849D01*
X0153524Y0135889D01*
X0153479Y0135931D01*
X0153437Y0135976D01*
X0153397Y0136024D01*
X0153361Y0136073D01*
X0153327Y0136125D01*
X0153297Y0136179D01*
X0153270Y0136235D01*
X0153246Y0136292D01*
X0153226Y0136350D01*
X0153210Y0136409D01*
X0153197Y0136470D01*
X0153187Y0136531D01*
X0153182Y0136592D01*
X0153180Y0136654D01*
X0153180Y0137676D01*
X0153180Y0139573D02*
X0157780Y0139573D01*
X0157780Y0140851D01*
X0157778Y0140921D01*
X0157772Y0140992D01*
X0157763Y0141061D01*
X0157749Y0141130D01*
X0157732Y0141199D01*
X0157711Y0141266D01*
X0157686Y0141332D01*
X0157658Y0141396D01*
X0157626Y0141459D01*
X0157591Y0141520D01*
X0157552Y0141579D01*
X0157511Y0141636D01*
X0157466Y0141690D01*
X0157418Y0141742D01*
X0157368Y0141791D01*
X0157314Y0141838D01*
X0157259Y0141881D01*
X0157201Y0141921D01*
X0157141Y0141958D01*
X0157079Y0141991D01*
X0157015Y0142021D01*
X0156950Y0142048D01*
X0156884Y0142071D01*
X0156816Y0142090D01*
X0156747Y0142105D01*
X0156678Y0142117D01*
X0156608Y0142125D01*
X0156537Y0142129D01*
X0156467Y0142129D01*
X0156396Y0142125D01*
X0156326Y0142117D01*
X0156257Y0142105D01*
X0156188Y0142090D01*
X0156120Y0142071D01*
X0156054Y0142048D01*
X0155989Y0142021D01*
X0155925Y0141991D01*
X0155863Y0141958D01*
X0155803Y0141921D01*
X0155745Y0141881D01*
X0155690Y0141838D01*
X0155636Y0141791D01*
X0155586Y0141742D01*
X0155538Y0141690D01*
X0155493Y0141636D01*
X0155452Y0141579D01*
X0155413Y0141520D01*
X0155378Y0141459D01*
X0155346Y0141396D01*
X0155318Y0141332D01*
X0155293Y0141266D01*
X0155272Y0141199D01*
X0155255Y0141130D01*
X0155241Y0141061D01*
X0155232Y0140992D01*
X0155226Y0140921D01*
X0155224Y0140851D01*
X0155224Y0139573D01*
X0155224Y0141107D02*
X0153180Y0142129D01*
X0154458Y0144044D02*
X0156502Y0144044D01*
X0156572Y0144046D01*
X0156643Y0144052D01*
X0156712Y0144061D01*
X0156781Y0144075D01*
X0156850Y0144092D01*
X0156917Y0144113D01*
X0156983Y0144138D01*
X0157047Y0144166D01*
X0157110Y0144198D01*
X0157171Y0144233D01*
X0157230Y0144272D01*
X0157287Y0144313D01*
X0157341Y0144358D01*
X0157393Y0144406D01*
X0157442Y0144456D01*
X0157489Y0144510D01*
X0157532Y0144565D01*
X0157572Y0144623D01*
X0157609Y0144683D01*
X0157642Y0144745D01*
X0157672Y0144809D01*
X0157699Y0144874D01*
X0157722Y0144940D01*
X0157741Y0145008D01*
X0157756Y0145077D01*
X0157768Y0145146D01*
X0157776Y0145216D01*
X0157780Y0145287D01*
X0157780Y0145357D01*
X0157776Y0145428D01*
X0157768Y0145498D01*
X0157756Y0145567D01*
X0157741Y0145636D01*
X0157722Y0145704D01*
X0157699Y0145770D01*
X0157672Y0145835D01*
X0157642Y0145899D01*
X0157609Y0145961D01*
X0157572Y0146021D01*
X0157532Y0146079D01*
X0157489Y0146134D01*
X0157442Y0146188D01*
X0157393Y0146238D01*
X0157341Y0146286D01*
X0157287Y0146331D01*
X0157230Y0146372D01*
X0157171Y0146411D01*
X0157110Y0146446D01*
X0157047Y0146478D01*
X0156983Y0146506D01*
X0156917Y0146531D01*
X0156850Y0146552D01*
X0156781Y0146569D01*
X0156712Y0146583D01*
X0156643Y0146592D01*
X0156572Y0146598D01*
X0156502Y0146600D01*
X0154458Y0146600D01*
X0154388Y0146598D01*
X0154317Y0146592D01*
X0154248Y0146583D01*
X0154179Y0146569D01*
X0154110Y0146552D01*
X0154043Y0146531D01*
X0153977Y0146506D01*
X0153913Y0146478D01*
X0153850Y0146446D01*
X0153789Y0146411D01*
X0153730Y0146372D01*
X0153673Y0146331D01*
X0153619Y0146286D01*
X0153567Y0146238D01*
X0153518Y0146188D01*
X0153471Y0146134D01*
X0153428Y0146079D01*
X0153388Y0146021D01*
X0153351Y0145961D01*
X0153318Y0145899D01*
X0153288Y0145835D01*
X0153261Y0145770D01*
X0153238Y0145704D01*
X0153219Y0145636D01*
X0153204Y0145567D01*
X0153192Y0145498D01*
X0153184Y0145428D01*
X0153180Y0145357D01*
X0153180Y0145287D01*
X0153184Y0145216D01*
X0153192Y0145146D01*
X0153204Y0145077D01*
X0153219Y0145008D01*
X0153238Y0144940D01*
X0153261Y0144874D01*
X0153288Y0144809D01*
X0153318Y0144745D01*
X0153351Y0144683D01*
X0153388Y0144623D01*
X0153428Y0144565D01*
X0153471Y0144510D01*
X0153518Y0144456D01*
X0153567Y0144406D01*
X0153619Y0144358D01*
X0153673Y0144313D01*
X0153730Y0144272D01*
X0153789Y0144233D01*
X0153850Y0144198D01*
X0153913Y0144166D01*
X0153977Y0144138D01*
X0154043Y0144113D01*
X0154110Y0144092D01*
X0154179Y0144075D01*
X0154248Y0144061D01*
X0154317Y0144052D01*
X0154388Y0144046D01*
X0154458Y0144044D01*
X0157780Y0137676D02*
X0157780Y0136654D01*
X0157778Y0136592D01*
X0157773Y0136531D01*
X0157763Y0136470D01*
X0157750Y0136409D01*
X0157734Y0136350D01*
X0157714Y0136292D01*
X0157690Y0136235D01*
X0157663Y0136179D01*
X0157633Y0136125D01*
X0157599Y0136073D01*
X0157562Y0136024D01*
X0157523Y0135976D01*
X0157481Y0135931D01*
X0157436Y0135889D01*
X0157388Y0135849D01*
X0157339Y0135813D01*
X0157287Y0135779D01*
X0157233Y0135749D01*
X0157177Y0135722D01*
X0157120Y0135698D01*
X0157062Y0135678D01*
X0157003Y0135662D01*
X0156942Y0135649D01*
X0156881Y0135639D01*
X0156820Y0135634D01*
X0156758Y0135632D01*
X0157780Y0119251D02*
X0157778Y0119321D01*
X0157772Y0119392D01*
X0157763Y0119461D01*
X0157749Y0119530D01*
X0157732Y0119599D01*
X0157711Y0119666D01*
X0157686Y0119732D01*
X0157658Y0119796D01*
X0157626Y0119859D01*
X0157591Y0119920D01*
X0157552Y0119979D01*
X0157511Y0120036D01*
X0157466Y0120090D01*
X0157418Y0120142D01*
X0157368Y0120191D01*
X0157314Y0120238D01*
X0157259Y0120281D01*
X0157201Y0120321D01*
X0157141Y0120358D01*
X0157079Y0120391D01*
X0157015Y0120421D01*
X0156950Y0120448D01*
X0156884Y0120471D01*
X0156816Y0120490D01*
X0156747Y0120505D01*
X0156678Y0120517D01*
X0156608Y0120525D01*
X0156537Y0120529D01*
X0156467Y0120529D01*
X0156396Y0120525D01*
X0156326Y0120517D01*
X0156257Y0120505D01*
X0156188Y0120490D01*
X0156120Y0120471D01*
X0156054Y0120448D01*
X0155989Y0120421D01*
X0155925Y0120391D01*
X0155863Y0120358D01*
X0155803Y0120321D01*
X0155745Y0120281D01*
X0155690Y0120238D01*
X0155636Y0120191D01*
X0155586Y0120142D01*
X0155538Y0120090D01*
X0155493Y0120036D01*
X0155452Y0119979D01*
X0155413Y0119920D01*
X0155378Y0119859D01*
X0155346Y0119796D01*
X0155318Y0119732D01*
X0155293Y0119666D01*
X0155272Y0119599D01*
X0155255Y0119530D01*
X0155241Y0119461D01*
X0155232Y0119392D01*
X0155226Y0119321D01*
X0155224Y0119251D01*
X0157780Y0119251D02*
X0157780Y0117973D01*
M02*
