G75*
%MOIN*%
%OFA0B0*%
%FSLAX25Y25*%
%IPPOS*%
%LPD*%
%AMOC8*
5,1,8,0,0,1.08239X$1,22.5*
%
%ADD10C,0.00500*%
%ADD11C,0.00098*%
%ADD12C,0.00400*%
%ADD13C,0.00800*%
%ADD14C,0.00600*%
D10*
X0043074Y0073861D02*
X0043074Y0119727D01*
X0092877Y0119727D01*
X0092877Y0073861D01*
X0043074Y0073861D01*
X0019730Y0082050D02*
X0017830Y0082050D01*
X0019730Y0083106D01*
X0017830Y0083106D01*
X0017830Y0084362D02*
X0017830Y0085206D01*
X0017830Y0084362D02*
X0019730Y0084362D01*
X0019730Y0085206D01*
X0018674Y0084995D02*
X0018674Y0084362D01*
X0018358Y0086154D02*
X0019202Y0086154D01*
X0019247Y0086156D01*
X0019291Y0086162D01*
X0019335Y0086171D01*
X0019378Y0086184D01*
X0019419Y0086201D01*
X0019460Y0086221D01*
X0019498Y0086245D01*
X0019534Y0086271D01*
X0019567Y0086301D01*
X0019598Y0086333D01*
X0019627Y0086368D01*
X0019652Y0086405D01*
X0019673Y0086444D01*
X0019692Y0086485D01*
X0019707Y0086527D01*
X0019718Y0086571D01*
X0019726Y0086615D01*
X0019730Y0086660D01*
X0019730Y0086704D01*
X0019726Y0086749D01*
X0019718Y0086793D01*
X0019707Y0086837D01*
X0019692Y0086879D01*
X0019673Y0086920D01*
X0019652Y0086959D01*
X0019627Y0086996D01*
X0019598Y0087031D01*
X0019567Y0087063D01*
X0019534Y0087093D01*
X0019498Y0087119D01*
X0019460Y0087143D01*
X0019419Y0087163D01*
X0019378Y0087180D01*
X0019335Y0087193D01*
X0019291Y0087202D01*
X0019247Y0087208D01*
X0019202Y0087210D01*
X0018358Y0087210D01*
X0018313Y0087208D01*
X0018269Y0087202D01*
X0018225Y0087193D01*
X0018182Y0087180D01*
X0018141Y0087163D01*
X0018100Y0087143D01*
X0018062Y0087119D01*
X0018026Y0087093D01*
X0017993Y0087063D01*
X0017962Y0087031D01*
X0017933Y0086996D01*
X0017908Y0086959D01*
X0017887Y0086920D01*
X0017868Y0086879D01*
X0017853Y0086837D01*
X0017842Y0086793D01*
X0017834Y0086749D01*
X0017830Y0086704D01*
X0017830Y0086660D01*
X0017834Y0086615D01*
X0017842Y0086571D01*
X0017853Y0086527D01*
X0017868Y0086485D01*
X0017887Y0086444D01*
X0017908Y0086405D01*
X0017933Y0086368D01*
X0017962Y0086333D01*
X0017993Y0086301D01*
X0018026Y0086271D01*
X0018062Y0086245D01*
X0018100Y0086221D01*
X0018141Y0086201D01*
X0018182Y0086184D01*
X0018225Y0086171D01*
X0018269Y0086162D01*
X0018313Y0086156D01*
X0018358Y0086154D01*
X0019941Y0088203D02*
X0019941Y0089048D01*
X0019730Y0090172D02*
X0017830Y0090172D01*
X0017830Y0090699D01*
X0017832Y0090744D01*
X0017838Y0090788D01*
X0017847Y0090832D01*
X0017860Y0090875D01*
X0017877Y0090916D01*
X0017897Y0090957D01*
X0017921Y0090995D01*
X0017947Y0091031D01*
X0017977Y0091064D01*
X0018009Y0091095D01*
X0018044Y0091124D01*
X0018081Y0091149D01*
X0018120Y0091170D01*
X0018161Y0091189D01*
X0018203Y0091204D01*
X0018247Y0091215D01*
X0018291Y0091223D01*
X0018336Y0091227D01*
X0018380Y0091227D01*
X0018425Y0091223D01*
X0018469Y0091215D01*
X0018513Y0091204D01*
X0018555Y0091189D01*
X0018596Y0091170D01*
X0018635Y0091149D01*
X0018672Y0091124D01*
X0018707Y0091095D01*
X0018739Y0091064D01*
X0018769Y0091031D01*
X0018795Y0090995D01*
X0018819Y0090957D01*
X0018839Y0090916D01*
X0018856Y0090875D01*
X0018869Y0090832D01*
X0018878Y0090788D01*
X0018884Y0090744D01*
X0018886Y0090699D01*
X0018886Y0090172D01*
X0019730Y0092087D02*
X0019730Y0092509D01*
X0019730Y0092298D02*
X0017830Y0092298D01*
X0017830Y0092087D02*
X0017830Y0092509D01*
X0017830Y0093392D02*
X0019730Y0094659D01*
X0019730Y0095738D02*
X0017830Y0095738D01*
X0017830Y0096582D01*
X0018674Y0096371D02*
X0018674Y0095738D01*
X0019730Y0095738D02*
X0019730Y0096582D01*
X0019730Y0097610D02*
X0017830Y0097610D01*
X0019730Y0097610D02*
X0019730Y0098454D01*
X0018938Y0100175D02*
X0018961Y0100209D01*
X0018986Y0100240D01*
X0019014Y0100269D01*
X0019045Y0100296D01*
X0019078Y0100319D01*
X0019113Y0100339D01*
X0019150Y0100356D01*
X0019188Y0100369D01*
X0019227Y0100378D01*
X0019268Y0100384D01*
X0019308Y0100386D01*
X0019308Y0100385D02*
X0019347Y0100383D01*
X0019386Y0100378D01*
X0019423Y0100369D01*
X0019460Y0100357D01*
X0019496Y0100341D01*
X0019530Y0100322D01*
X0019562Y0100300D01*
X0019592Y0100275D01*
X0019620Y0100247D01*
X0019645Y0100217D01*
X0019667Y0100185D01*
X0019686Y0100151D01*
X0019702Y0100115D01*
X0019714Y0100078D01*
X0019723Y0100041D01*
X0019728Y0100002D01*
X0019730Y0099963D01*
X0018938Y0100174D02*
X0018622Y0099594D01*
X0017830Y0099805D02*
X0017832Y0099856D01*
X0017837Y0099907D01*
X0017845Y0099957D01*
X0017856Y0100007D01*
X0017871Y0100055D01*
X0017888Y0100103D01*
X0017909Y0100150D01*
X0017933Y0100195D01*
X0017959Y0100238D01*
X0017988Y0100280D01*
X0018622Y0099593D02*
X0018599Y0099559D01*
X0018574Y0099528D01*
X0018546Y0099499D01*
X0018515Y0099472D01*
X0018482Y0099449D01*
X0018447Y0099429D01*
X0018410Y0099412D01*
X0018372Y0099399D01*
X0018333Y0099390D01*
X0018292Y0099384D01*
X0018252Y0099382D01*
X0018252Y0099383D02*
X0018213Y0099385D01*
X0018174Y0099390D01*
X0018137Y0099399D01*
X0018100Y0099411D01*
X0018064Y0099427D01*
X0018030Y0099446D01*
X0017998Y0099468D01*
X0017968Y0099493D01*
X0017940Y0099521D01*
X0017915Y0099551D01*
X0017893Y0099583D01*
X0017874Y0099617D01*
X0017858Y0099653D01*
X0017846Y0099690D01*
X0017837Y0099727D01*
X0017832Y0099766D01*
X0017830Y0099805D01*
X0019466Y0099330D02*
X0019506Y0099372D01*
X0019544Y0099418D01*
X0019578Y0099465D01*
X0019609Y0099515D01*
X0019637Y0099567D01*
X0019661Y0099620D01*
X0019682Y0099675D01*
X0019699Y0099731D01*
X0019713Y0099788D01*
X0019722Y0099846D01*
X0019728Y0099904D01*
X0019730Y0099963D01*
X0017830Y0094659D02*
X0019730Y0093392D01*
X0009910Y0096800D02*
X0009927Y0098225D01*
X0009980Y0099649D01*
X0010067Y0101072D01*
X0010190Y0102492D01*
X0010347Y0103908D01*
X0010539Y0105321D01*
X0010765Y0106728D01*
X0011026Y0108129D01*
X0011321Y0109523D01*
X0011650Y0110910D01*
X0012014Y0112288D01*
X0012410Y0113657D01*
X0012841Y0115015D01*
X0013305Y0116363D01*
X0013801Y0117699D01*
X0014330Y0119022D01*
X0014892Y0120332D01*
X0015485Y0121628D01*
X0016110Y0122909D01*
X0016767Y0124174D01*
X0017454Y0125423D01*
X0018172Y0126654D01*
X0018919Y0127867D01*
X0019697Y0129062D01*
X0020503Y0130237D01*
X0021338Y0131392D01*
X0022201Y0132526D01*
X0023091Y0133639D01*
X0024009Y0134730D01*
X0024953Y0135797D01*
X0025923Y0136842D01*
X0026918Y0137862D01*
X0027938Y0138857D01*
X0028983Y0139827D01*
X0030050Y0140771D01*
X0031141Y0141689D01*
X0032254Y0142579D01*
X0033388Y0143442D01*
X0034543Y0144277D01*
X0035718Y0145083D01*
X0036913Y0145861D01*
X0038126Y0146608D01*
X0039357Y0147326D01*
X0040606Y0148013D01*
X0041871Y0148670D01*
X0043152Y0149295D01*
X0044448Y0149888D01*
X0045758Y0150450D01*
X0047081Y0150979D01*
X0048417Y0151475D01*
X0049765Y0151939D01*
X0051123Y0152370D01*
X0052492Y0152766D01*
X0053870Y0153130D01*
X0055257Y0153459D01*
X0056651Y0153754D01*
X0058052Y0154015D01*
X0059459Y0154241D01*
X0060872Y0154433D01*
X0062288Y0154590D01*
X0063708Y0154713D01*
X0065131Y0154800D01*
X0066555Y0154853D01*
X0067980Y0154870D01*
X0069405Y0154853D01*
X0070829Y0154800D01*
X0072252Y0154713D01*
X0073672Y0154590D01*
X0075088Y0154433D01*
X0076501Y0154241D01*
X0077908Y0154015D01*
X0079309Y0153754D01*
X0080703Y0153459D01*
X0082090Y0153130D01*
X0083468Y0152766D01*
X0084837Y0152370D01*
X0086195Y0151939D01*
X0087543Y0151475D01*
X0088879Y0150979D01*
X0090202Y0150450D01*
X0091512Y0149888D01*
X0092808Y0149295D01*
X0094089Y0148670D01*
X0095354Y0148013D01*
X0096603Y0147326D01*
X0097834Y0146608D01*
X0099047Y0145861D01*
X0100242Y0145083D01*
X0101417Y0144277D01*
X0102572Y0143442D01*
X0103706Y0142579D01*
X0104819Y0141689D01*
X0105910Y0140771D01*
X0106977Y0139827D01*
X0108022Y0138857D01*
X0109042Y0137862D01*
X0110037Y0136842D01*
X0111007Y0135797D01*
X0111951Y0134730D01*
X0112869Y0133639D01*
X0113759Y0132526D01*
X0114622Y0131392D01*
X0115457Y0130237D01*
X0116263Y0129062D01*
X0117041Y0127867D01*
X0117788Y0126654D01*
X0118506Y0125423D01*
X0119193Y0124174D01*
X0119850Y0122909D01*
X0120475Y0121628D01*
X0121068Y0120332D01*
X0121630Y0119022D01*
X0122159Y0117699D01*
X0122655Y0116363D01*
X0123119Y0115015D01*
X0123550Y0113657D01*
X0123946Y0112288D01*
X0124310Y0110910D01*
X0124639Y0109523D01*
X0124934Y0108129D01*
X0125195Y0106728D01*
X0125421Y0105321D01*
X0125613Y0103908D01*
X0125770Y0102492D01*
X0125893Y0101072D01*
X0125980Y0099649D01*
X0126033Y0098225D01*
X0126050Y0096800D01*
X0126033Y0095375D01*
X0125980Y0093951D01*
X0125893Y0092528D01*
X0125770Y0091108D01*
X0125613Y0089692D01*
X0125421Y0088279D01*
X0125195Y0086872D01*
X0124934Y0085471D01*
X0124639Y0084077D01*
X0124310Y0082690D01*
X0123946Y0081312D01*
X0123550Y0079943D01*
X0123119Y0078585D01*
X0122655Y0077237D01*
X0122159Y0075901D01*
X0121630Y0074578D01*
X0121068Y0073268D01*
X0120475Y0071972D01*
X0119850Y0070691D01*
X0119193Y0069426D01*
X0118506Y0068177D01*
X0117788Y0066946D01*
X0117041Y0065733D01*
X0116263Y0064538D01*
X0115457Y0063363D01*
X0114622Y0062208D01*
X0113759Y0061074D01*
X0112869Y0059961D01*
X0111951Y0058870D01*
X0111007Y0057803D01*
X0110037Y0056758D01*
X0109042Y0055738D01*
X0108022Y0054743D01*
X0106977Y0053773D01*
X0105910Y0052829D01*
X0104819Y0051911D01*
X0103706Y0051021D01*
X0102572Y0050158D01*
X0101417Y0049323D01*
X0100242Y0048517D01*
X0099047Y0047739D01*
X0097834Y0046992D01*
X0096603Y0046274D01*
X0095354Y0045587D01*
X0094089Y0044930D01*
X0092808Y0044305D01*
X0091512Y0043712D01*
X0090202Y0043150D01*
X0088879Y0042621D01*
X0087543Y0042125D01*
X0086195Y0041661D01*
X0084837Y0041230D01*
X0083468Y0040834D01*
X0082090Y0040470D01*
X0080703Y0040141D01*
X0079309Y0039846D01*
X0077908Y0039585D01*
X0076501Y0039359D01*
X0075088Y0039167D01*
X0073672Y0039010D01*
X0072252Y0038887D01*
X0070829Y0038800D01*
X0069405Y0038747D01*
X0067980Y0038730D01*
X0066555Y0038747D01*
X0065131Y0038800D01*
X0063708Y0038887D01*
X0062288Y0039010D01*
X0060872Y0039167D01*
X0059459Y0039359D01*
X0058052Y0039585D01*
X0056651Y0039846D01*
X0055257Y0040141D01*
X0053870Y0040470D01*
X0052492Y0040834D01*
X0051123Y0041230D01*
X0049765Y0041661D01*
X0048417Y0042125D01*
X0047081Y0042621D01*
X0045758Y0043150D01*
X0044448Y0043712D01*
X0043152Y0044305D01*
X0041871Y0044930D01*
X0040606Y0045587D01*
X0039357Y0046274D01*
X0038126Y0046992D01*
X0036913Y0047739D01*
X0035718Y0048517D01*
X0034543Y0049323D01*
X0033388Y0050158D01*
X0032254Y0051021D01*
X0031141Y0051911D01*
X0030050Y0052829D01*
X0028983Y0053773D01*
X0027938Y0054743D01*
X0026918Y0055738D01*
X0025923Y0056758D01*
X0024953Y0057803D01*
X0024009Y0058870D01*
X0023091Y0059961D01*
X0022201Y0061074D01*
X0021338Y0062208D01*
X0020503Y0063363D01*
X0019697Y0064538D01*
X0018919Y0065733D01*
X0018172Y0066946D01*
X0017454Y0068177D01*
X0016767Y0069426D01*
X0016110Y0070691D01*
X0015485Y0071972D01*
X0014892Y0073268D01*
X0014330Y0074578D01*
X0013801Y0075901D01*
X0013305Y0077237D01*
X0012841Y0078585D01*
X0012410Y0079943D01*
X0012014Y0081312D01*
X0011650Y0082690D01*
X0011321Y0084077D01*
X0011026Y0085471D01*
X0010765Y0086872D01*
X0010539Y0088279D01*
X0010347Y0089692D01*
X0010190Y0091108D01*
X0010067Y0092528D01*
X0009980Y0093951D01*
X0009927Y0095375D01*
X0009910Y0096800D01*
X0001250Y0096800D02*
X0001270Y0098438D01*
X0001330Y0100074D01*
X0001431Y0101709D01*
X0001571Y0103341D01*
X0001752Y0104968D01*
X0001972Y0106591D01*
X0002232Y0108208D01*
X0002532Y0109818D01*
X0002871Y0111421D01*
X0003250Y0113014D01*
X0003667Y0114598D01*
X0004123Y0116171D01*
X0004618Y0117732D01*
X0005151Y0119281D01*
X0005721Y0120816D01*
X0006330Y0122336D01*
X0006975Y0123842D01*
X0007657Y0125331D01*
X0008375Y0126803D01*
X0009129Y0128256D01*
X0009919Y0129691D01*
X0010744Y0131106D01*
X0011603Y0132500D01*
X0012496Y0133873D01*
X0013423Y0135224D01*
X0014382Y0136551D01*
X0015374Y0137854D01*
X0016397Y0139133D01*
X0017451Y0140386D01*
X0018536Y0141613D01*
X0019651Y0142813D01*
X0020795Y0143985D01*
X0021967Y0145129D01*
X0023167Y0146244D01*
X0024394Y0147329D01*
X0025647Y0148383D01*
X0026926Y0149406D01*
X0028229Y0150398D01*
X0029556Y0151357D01*
X0030907Y0152284D01*
X0032280Y0153177D01*
X0033674Y0154036D01*
X0035089Y0154861D01*
X0036524Y0155651D01*
X0037977Y0156405D01*
X0039449Y0157123D01*
X0040938Y0157805D01*
X0042444Y0158450D01*
X0043964Y0159059D01*
X0045499Y0159629D01*
X0047048Y0160162D01*
X0048609Y0160657D01*
X0050182Y0161113D01*
X0051766Y0161530D01*
X0053359Y0161909D01*
X0054962Y0162248D01*
X0056572Y0162548D01*
X0058189Y0162808D01*
X0059812Y0163028D01*
X0061439Y0163209D01*
X0063071Y0163349D01*
X0064706Y0163450D01*
X0066342Y0163510D01*
X0067980Y0163530D01*
X0069618Y0163510D01*
X0071254Y0163450D01*
X0072889Y0163349D01*
X0074521Y0163209D01*
X0076148Y0163028D01*
X0077771Y0162808D01*
X0079388Y0162548D01*
X0080998Y0162248D01*
X0082601Y0161909D01*
X0084194Y0161530D01*
X0085778Y0161113D01*
X0087351Y0160657D01*
X0088912Y0160162D01*
X0090461Y0159629D01*
X0091996Y0159059D01*
X0093516Y0158450D01*
X0095022Y0157805D01*
X0096511Y0157123D01*
X0097983Y0156405D01*
X0099436Y0155651D01*
X0100871Y0154861D01*
X0102286Y0154036D01*
X0103680Y0153177D01*
X0105053Y0152284D01*
X0106404Y0151357D01*
X0107731Y0150398D01*
X0109034Y0149406D01*
X0110313Y0148383D01*
X0111566Y0147329D01*
X0112793Y0146244D01*
X0113993Y0145129D01*
X0115165Y0143985D01*
X0116309Y0142813D01*
X0117424Y0141613D01*
X0118509Y0140386D01*
X0119563Y0139133D01*
X0120586Y0137854D01*
X0121578Y0136551D01*
X0122537Y0135224D01*
X0123464Y0133873D01*
X0124357Y0132500D01*
X0125216Y0131106D01*
X0126041Y0129691D01*
X0126831Y0128256D01*
X0127585Y0126803D01*
X0128303Y0125331D01*
X0128985Y0123842D01*
X0129630Y0122336D01*
X0130239Y0120816D01*
X0130809Y0119281D01*
X0131342Y0117732D01*
X0131837Y0116171D01*
X0132293Y0114598D01*
X0132710Y0113014D01*
X0133089Y0111421D01*
X0133428Y0109818D01*
X0133728Y0108208D01*
X0133988Y0106591D01*
X0134208Y0104968D01*
X0134389Y0103341D01*
X0134529Y0101709D01*
X0134630Y0100074D01*
X0134690Y0098438D01*
X0134710Y0096800D01*
X0134690Y0095162D01*
X0134630Y0093526D01*
X0134529Y0091891D01*
X0134389Y0090259D01*
X0134208Y0088632D01*
X0133988Y0087009D01*
X0133728Y0085392D01*
X0133428Y0083782D01*
X0133089Y0082179D01*
X0132710Y0080586D01*
X0132293Y0079002D01*
X0131837Y0077429D01*
X0131342Y0075868D01*
X0130809Y0074319D01*
X0130239Y0072784D01*
X0129630Y0071264D01*
X0128985Y0069758D01*
X0128303Y0068269D01*
X0127585Y0066797D01*
X0126831Y0065344D01*
X0126041Y0063909D01*
X0125216Y0062494D01*
X0124357Y0061100D01*
X0123464Y0059727D01*
X0122537Y0058376D01*
X0121578Y0057049D01*
X0120586Y0055746D01*
X0119563Y0054467D01*
X0118509Y0053214D01*
X0117424Y0051987D01*
X0116309Y0050787D01*
X0115165Y0049615D01*
X0113993Y0048471D01*
X0112793Y0047356D01*
X0111566Y0046271D01*
X0110313Y0045217D01*
X0109034Y0044194D01*
X0107731Y0043202D01*
X0106404Y0042243D01*
X0105053Y0041316D01*
X0103680Y0040423D01*
X0102286Y0039564D01*
X0100871Y0038739D01*
X0099436Y0037949D01*
X0097983Y0037195D01*
X0096511Y0036477D01*
X0095022Y0035795D01*
X0093516Y0035150D01*
X0091996Y0034541D01*
X0090461Y0033971D01*
X0088912Y0033438D01*
X0087351Y0032943D01*
X0085778Y0032487D01*
X0084194Y0032070D01*
X0082601Y0031691D01*
X0080998Y0031352D01*
X0079388Y0031052D01*
X0077771Y0030792D01*
X0076148Y0030572D01*
X0074521Y0030391D01*
X0072889Y0030251D01*
X0071254Y0030150D01*
X0069618Y0030090D01*
X0067980Y0030070D01*
X0066342Y0030090D01*
X0064706Y0030150D01*
X0063071Y0030251D01*
X0061439Y0030391D01*
X0059812Y0030572D01*
X0058189Y0030792D01*
X0056572Y0031052D01*
X0054962Y0031352D01*
X0053359Y0031691D01*
X0051766Y0032070D01*
X0050182Y0032487D01*
X0048609Y0032943D01*
X0047048Y0033438D01*
X0045499Y0033971D01*
X0043964Y0034541D01*
X0042444Y0035150D01*
X0040938Y0035795D01*
X0039449Y0036477D01*
X0037977Y0037195D01*
X0036524Y0037949D01*
X0035089Y0038739D01*
X0033674Y0039564D01*
X0032280Y0040423D01*
X0030907Y0041316D01*
X0029556Y0042243D01*
X0028229Y0043202D01*
X0026926Y0044194D01*
X0025647Y0045217D01*
X0024394Y0046271D01*
X0023167Y0047356D01*
X0021967Y0048471D01*
X0020795Y0049615D01*
X0019651Y0050787D01*
X0018536Y0051987D01*
X0017451Y0053214D01*
X0016397Y0054467D01*
X0015374Y0055746D01*
X0014382Y0057049D01*
X0013423Y0058376D01*
X0012496Y0059727D01*
X0011603Y0061100D01*
X0010744Y0062494D01*
X0009919Y0063909D01*
X0009129Y0065344D01*
X0008375Y0066797D01*
X0007657Y0068269D01*
X0006975Y0069758D01*
X0006330Y0071264D01*
X0005721Y0072784D01*
X0005151Y0074319D01*
X0004618Y0075868D01*
X0004123Y0077429D01*
X0003667Y0079002D01*
X0003250Y0080586D01*
X0002871Y0082179D01*
X0002532Y0083782D01*
X0002232Y0085392D01*
X0001972Y0087009D01*
X0001752Y0088632D01*
X0001571Y0090259D01*
X0001431Y0091891D01*
X0001330Y0093526D01*
X0001270Y0095162D01*
X0001250Y0096800D01*
X0106830Y0100205D02*
X0106830Y0100733D01*
X0106832Y0100778D01*
X0106838Y0100822D01*
X0106847Y0100866D01*
X0106860Y0100909D01*
X0106877Y0100950D01*
X0106897Y0100991D01*
X0106921Y0101029D01*
X0106947Y0101065D01*
X0106977Y0101098D01*
X0107009Y0101129D01*
X0107044Y0101158D01*
X0107081Y0101183D01*
X0107120Y0101204D01*
X0107161Y0101223D01*
X0107203Y0101238D01*
X0107247Y0101249D01*
X0107291Y0101257D01*
X0107336Y0101261D01*
X0107380Y0101261D01*
X0107425Y0101257D01*
X0107469Y0101249D01*
X0107513Y0101238D01*
X0107555Y0101223D01*
X0107596Y0101204D01*
X0107635Y0101183D01*
X0107672Y0101158D01*
X0107707Y0101129D01*
X0107739Y0101098D01*
X0107769Y0101065D01*
X0107795Y0101029D01*
X0107819Y0100991D01*
X0107839Y0100950D01*
X0107856Y0100909D01*
X0107869Y0100866D01*
X0107878Y0100822D01*
X0107884Y0100778D01*
X0107886Y0100733D01*
X0107886Y0100205D01*
X0107886Y0100838D02*
X0108730Y0101260D01*
X0108730Y0100205D02*
X0106830Y0100205D01*
X0107252Y0102340D02*
X0106830Y0102867D01*
X0108730Y0102867D01*
X0108730Y0102340D02*
X0108730Y0103395D01*
X0117230Y0102328D02*
X0119130Y0101800D01*
X0118866Y0104330D02*
X0118802Y0104359D01*
X0118736Y0104386D01*
X0118669Y0104410D01*
X0118601Y0104430D01*
X0118532Y0104448D01*
X0118463Y0104462D01*
X0118392Y0104474D01*
X0118322Y0104482D01*
X0118251Y0104486D01*
X0118180Y0104488D01*
X0118180Y0103432D02*
X0118109Y0103434D01*
X0118038Y0103438D01*
X0117968Y0103446D01*
X0117897Y0103458D01*
X0117828Y0103472D01*
X0117759Y0103490D01*
X0117691Y0103510D01*
X0117624Y0103534D01*
X0117558Y0103561D01*
X0117494Y0103590D01*
X0117230Y0103960D02*
X0117232Y0103997D01*
X0117237Y0104034D01*
X0117246Y0104070D01*
X0117258Y0104106D01*
X0117274Y0104140D01*
X0117292Y0104172D01*
X0117314Y0104202D01*
X0117339Y0104230D01*
X0117366Y0104256D01*
X0117395Y0104279D01*
X0117426Y0104299D01*
X0117460Y0104316D01*
X0117494Y0104330D01*
X0117652Y0104382D02*
X0118708Y0103538D01*
X0119130Y0103960D02*
X0119128Y0103997D01*
X0119123Y0104034D01*
X0119114Y0104070D01*
X0119102Y0104106D01*
X0119086Y0104140D01*
X0119068Y0104172D01*
X0119046Y0104202D01*
X0119022Y0104230D01*
X0118994Y0104256D01*
X0118965Y0104279D01*
X0118934Y0104299D01*
X0118900Y0104316D01*
X0118866Y0104330D01*
X0119130Y0103960D02*
X0119128Y0103923D01*
X0119123Y0103886D01*
X0119114Y0103850D01*
X0119102Y0103814D01*
X0119086Y0103780D01*
X0119068Y0103748D01*
X0119046Y0103718D01*
X0119022Y0103690D01*
X0118994Y0103664D01*
X0118965Y0103641D01*
X0118934Y0103621D01*
X0118900Y0103604D01*
X0118866Y0103590D01*
X0118180Y0104488D02*
X0118109Y0104486D01*
X0118038Y0104482D01*
X0117968Y0104474D01*
X0117897Y0104462D01*
X0117828Y0104448D01*
X0117759Y0104430D01*
X0117691Y0104410D01*
X0117624Y0104386D01*
X0117558Y0104359D01*
X0117494Y0104330D01*
X0117230Y0103960D02*
X0117232Y0103923D01*
X0117237Y0103886D01*
X0117246Y0103850D01*
X0117258Y0103814D01*
X0117274Y0103780D01*
X0117292Y0103748D01*
X0117314Y0103718D01*
X0117339Y0103690D01*
X0117366Y0103664D01*
X0117395Y0103641D01*
X0117426Y0103621D01*
X0117460Y0103604D01*
X0117494Y0103590D01*
X0117230Y0102328D02*
X0117230Y0101272D01*
X0117441Y0101272D01*
X0118286Y0099851D02*
X0119130Y0099851D01*
X0118708Y0100168D02*
X0118708Y0099112D01*
X0117230Y0099534D01*
X0118180Y0103432D02*
X0118251Y0103434D01*
X0118322Y0103438D01*
X0118392Y0103446D01*
X0118463Y0103458D01*
X0118532Y0103472D01*
X0118601Y0103490D01*
X0118669Y0103510D01*
X0118736Y0103534D01*
X0118802Y0103561D01*
X0118866Y0103590D01*
X0197230Y0134112D02*
X0197230Y0134746D01*
X0197232Y0134786D01*
X0197238Y0134826D01*
X0197247Y0134865D01*
X0197260Y0134903D01*
X0197277Y0134939D01*
X0197297Y0134974D01*
X0197320Y0135007D01*
X0197347Y0135037D01*
X0197376Y0135065D01*
X0197407Y0135090D01*
X0197441Y0135111D01*
X0197477Y0135130D01*
X0197514Y0135145D01*
X0197553Y0135156D01*
X0197592Y0135164D01*
X0197632Y0135168D01*
X0197672Y0135168D01*
X0197712Y0135164D01*
X0197751Y0135156D01*
X0197790Y0135145D01*
X0197827Y0135130D01*
X0197863Y0135111D01*
X0197897Y0135090D01*
X0197928Y0135065D01*
X0197957Y0135037D01*
X0197984Y0135007D01*
X0198007Y0134974D01*
X0198027Y0134939D01*
X0198044Y0134903D01*
X0198057Y0134865D01*
X0198066Y0134826D01*
X0198072Y0134786D01*
X0198074Y0134746D01*
X0198074Y0134323D01*
X0198074Y0134640D02*
X0198076Y0134685D01*
X0198082Y0134729D01*
X0198091Y0134773D01*
X0198104Y0134816D01*
X0198121Y0134857D01*
X0198141Y0134898D01*
X0198165Y0134936D01*
X0198191Y0134972D01*
X0198221Y0135005D01*
X0198253Y0135036D01*
X0198288Y0135065D01*
X0198325Y0135090D01*
X0198364Y0135111D01*
X0198405Y0135130D01*
X0198447Y0135145D01*
X0198491Y0135156D01*
X0198535Y0135164D01*
X0198580Y0135168D01*
X0198624Y0135168D01*
X0198669Y0135164D01*
X0198713Y0135156D01*
X0198757Y0135145D01*
X0198799Y0135130D01*
X0198840Y0135111D01*
X0198879Y0135090D01*
X0198916Y0135065D01*
X0198951Y0135036D01*
X0198983Y0135005D01*
X0199013Y0134972D01*
X0199039Y0134936D01*
X0199063Y0134898D01*
X0199083Y0134857D01*
X0199100Y0134816D01*
X0199113Y0134773D01*
X0199122Y0134729D01*
X0199128Y0134685D01*
X0199130Y0134640D01*
X0199130Y0134112D01*
X0198866Y0137170D02*
X0198802Y0137199D01*
X0198736Y0137226D01*
X0198669Y0137250D01*
X0198601Y0137270D01*
X0198532Y0137288D01*
X0198463Y0137302D01*
X0198392Y0137314D01*
X0198322Y0137322D01*
X0198251Y0137326D01*
X0198180Y0137328D01*
X0198180Y0136272D02*
X0198109Y0136274D01*
X0198038Y0136278D01*
X0197968Y0136286D01*
X0197897Y0136298D01*
X0197828Y0136312D01*
X0197759Y0136330D01*
X0197691Y0136350D01*
X0197624Y0136374D01*
X0197558Y0136401D01*
X0197494Y0136430D01*
X0197230Y0136800D02*
X0197232Y0136837D01*
X0197237Y0136874D01*
X0197246Y0136910D01*
X0197258Y0136946D01*
X0197274Y0136980D01*
X0197292Y0137012D01*
X0197314Y0137042D01*
X0197339Y0137070D01*
X0197366Y0137096D01*
X0197395Y0137119D01*
X0197426Y0137139D01*
X0197460Y0137156D01*
X0197494Y0137170D01*
X0197652Y0137222D02*
X0198708Y0136378D01*
X0199130Y0136800D02*
X0199128Y0136837D01*
X0199123Y0136874D01*
X0199114Y0136910D01*
X0199102Y0136946D01*
X0199086Y0136980D01*
X0199068Y0137012D01*
X0199046Y0137042D01*
X0199022Y0137070D01*
X0198994Y0137096D01*
X0198965Y0137119D01*
X0198934Y0137139D01*
X0198900Y0137156D01*
X0198866Y0137170D01*
X0199130Y0136800D02*
X0199128Y0136763D01*
X0199123Y0136726D01*
X0199114Y0136690D01*
X0199102Y0136654D01*
X0199086Y0136620D01*
X0199068Y0136588D01*
X0199046Y0136558D01*
X0199022Y0136530D01*
X0198994Y0136504D01*
X0198965Y0136481D01*
X0198934Y0136461D01*
X0198900Y0136444D01*
X0198866Y0136430D01*
X0198180Y0137328D02*
X0198109Y0137326D01*
X0198038Y0137322D01*
X0197968Y0137314D01*
X0197897Y0137302D01*
X0197828Y0137288D01*
X0197759Y0137270D01*
X0197691Y0137250D01*
X0197624Y0137226D01*
X0197558Y0137199D01*
X0197494Y0137170D01*
X0197230Y0136800D02*
X0197232Y0136763D01*
X0197237Y0136726D01*
X0197246Y0136690D01*
X0197258Y0136654D01*
X0197274Y0136620D01*
X0197292Y0136588D01*
X0197314Y0136558D01*
X0197339Y0136530D01*
X0197366Y0136504D01*
X0197395Y0136481D01*
X0197426Y0136461D01*
X0197460Y0136444D01*
X0197494Y0136430D01*
X0198180Y0136272D02*
X0198251Y0136274D01*
X0198322Y0136278D01*
X0198392Y0136286D01*
X0198463Y0136298D01*
X0198532Y0136312D01*
X0198601Y0136330D01*
X0198669Y0136350D01*
X0198736Y0136374D01*
X0198802Y0136401D01*
X0198866Y0136430D01*
X0198866Y0139330D02*
X0198802Y0139359D01*
X0198736Y0139386D01*
X0198669Y0139410D01*
X0198601Y0139430D01*
X0198532Y0139448D01*
X0198463Y0139462D01*
X0198392Y0139474D01*
X0198322Y0139482D01*
X0198251Y0139486D01*
X0198180Y0139488D01*
X0198180Y0138432D02*
X0198109Y0138434D01*
X0198038Y0138438D01*
X0197968Y0138446D01*
X0197897Y0138458D01*
X0197828Y0138472D01*
X0197759Y0138490D01*
X0197691Y0138510D01*
X0197624Y0138534D01*
X0197558Y0138561D01*
X0197494Y0138590D01*
X0197230Y0138960D02*
X0197232Y0138997D01*
X0197237Y0139034D01*
X0197246Y0139070D01*
X0197258Y0139106D01*
X0197274Y0139140D01*
X0197292Y0139172D01*
X0197314Y0139202D01*
X0197339Y0139230D01*
X0197366Y0139256D01*
X0197395Y0139279D01*
X0197426Y0139299D01*
X0197460Y0139316D01*
X0197494Y0139330D01*
X0197652Y0139382D02*
X0198708Y0138538D01*
X0199130Y0138960D02*
X0199128Y0138997D01*
X0199123Y0139034D01*
X0199114Y0139070D01*
X0199102Y0139106D01*
X0199086Y0139140D01*
X0199068Y0139172D01*
X0199046Y0139202D01*
X0199022Y0139230D01*
X0198994Y0139256D01*
X0198965Y0139279D01*
X0198934Y0139299D01*
X0198900Y0139316D01*
X0198866Y0139330D01*
X0199130Y0138960D02*
X0199128Y0138923D01*
X0199123Y0138886D01*
X0199114Y0138850D01*
X0199102Y0138814D01*
X0199086Y0138780D01*
X0199068Y0138748D01*
X0199046Y0138718D01*
X0199022Y0138690D01*
X0198994Y0138664D01*
X0198965Y0138641D01*
X0198934Y0138621D01*
X0198900Y0138604D01*
X0198866Y0138590D01*
X0198180Y0139488D02*
X0198109Y0139486D01*
X0198038Y0139482D01*
X0197968Y0139474D01*
X0197897Y0139462D01*
X0197828Y0139448D01*
X0197759Y0139430D01*
X0197691Y0139410D01*
X0197624Y0139386D01*
X0197558Y0139359D01*
X0197494Y0139330D01*
X0197230Y0138960D02*
X0197232Y0138923D01*
X0197237Y0138886D01*
X0197246Y0138850D01*
X0197258Y0138814D01*
X0197274Y0138780D01*
X0197292Y0138748D01*
X0197314Y0138718D01*
X0197339Y0138690D01*
X0197366Y0138664D01*
X0197395Y0138641D01*
X0197426Y0138621D01*
X0197460Y0138604D01*
X0197494Y0138590D01*
X0198180Y0138432D02*
X0198251Y0138434D01*
X0198322Y0138438D01*
X0198392Y0138446D01*
X0198463Y0138458D01*
X0198532Y0138472D01*
X0198601Y0138490D01*
X0198669Y0138510D01*
X0198736Y0138534D01*
X0198802Y0138561D01*
X0198866Y0138590D01*
X0188730Y0137867D02*
X0188730Y0137340D01*
X0188730Y0137867D02*
X0188728Y0137912D01*
X0188722Y0137956D01*
X0188713Y0138000D01*
X0188700Y0138043D01*
X0188683Y0138084D01*
X0188663Y0138125D01*
X0188639Y0138163D01*
X0188613Y0138199D01*
X0188583Y0138232D01*
X0188551Y0138263D01*
X0188516Y0138292D01*
X0188479Y0138317D01*
X0188440Y0138338D01*
X0188399Y0138357D01*
X0188357Y0138372D01*
X0188313Y0138383D01*
X0188269Y0138391D01*
X0188224Y0138395D01*
X0188180Y0138395D01*
X0188135Y0138391D01*
X0188091Y0138383D01*
X0188047Y0138372D01*
X0188005Y0138357D01*
X0187964Y0138338D01*
X0187925Y0138317D01*
X0187888Y0138292D01*
X0187853Y0138263D01*
X0187821Y0138232D01*
X0187791Y0138199D01*
X0187765Y0138163D01*
X0187741Y0138125D01*
X0187721Y0138084D01*
X0187704Y0138043D01*
X0187691Y0138000D01*
X0187682Y0137956D01*
X0187676Y0137912D01*
X0187674Y0137867D01*
X0187674Y0137973D02*
X0187674Y0137551D01*
X0187674Y0137973D02*
X0187672Y0138013D01*
X0187666Y0138053D01*
X0187657Y0138092D01*
X0187644Y0138130D01*
X0187627Y0138166D01*
X0187607Y0138201D01*
X0187584Y0138234D01*
X0187557Y0138264D01*
X0187528Y0138292D01*
X0187497Y0138317D01*
X0187463Y0138338D01*
X0187427Y0138357D01*
X0187390Y0138372D01*
X0187351Y0138383D01*
X0187312Y0138391D01*
X0187272Y0138395D01*
X0187232Y0138395D01*
X0187192Y0138391D01*
X0187153Y0138383D01*
X0187114Y0138372D01*
X0187077Y0138357D01*
X0187041Y0138338D01*
X0187007Y0138317D01*
X0186976Y0138292D01*
X0186947Y0138264D01*
X0186920Y0138234D01*
X0186897Y0138201D01*
X0186877Y0138166D01*
X0186860Y0138130D01*
X0186847Y0138092D01*
X0186838Y0138053D01*
X0186832Y0138013D01*
X0186830Y0137973D01*
X0186830Y0137340D01*
X0186830Y0135733D02*
X0186830Y0135205D01*
X0188730Y0135205D01*
X0187886Y0135205D02*
X0187886Y0135733D01*
X0187886Y0135838D02*
X0188730Y0136260D01*
X0187886Y0135733D02*
X0187884Y0135778D01*
X0187878Y0135822D01*
X0187869Y0135866D01*
X0187856Y0135909D01*
X0187839Y0135950D01*
X0187819Y0135991D01*
X0187795Y0136029D01*
X0187769Y0136065D01*
X0187739Y0136098D01*
X0187707Y0136129D01*
X0187672Y0136158D01*
X0187635Y0136183D01*
X0187596Y0136204D01*
X0187555Y0136223D01*
X0187513Y0136238D01*
X0187469Y0136249D01*
X0187425Y0136257D01*
X0187380Y0136261D01*
X0187336Y0136261D01*
X0187291Y0136257D01*
X0187247Y0136249D01*
X0187203Y0136238D01*
X0187161Y0136223D01*
X0187120Y0136204D01*
X0187081Y0136183D01*
X0187044Y0136158D01*
X0187009Y0136129D01*
X0186977Y0136098D01*
X0186947Y0136065D01*
X0186921Y0136029D01*
X0186897Y0135991D01*
X0186877Y0135950D01*
X0186860Y0135909D01*
X0186847Y0135866D01*
X0186838Y0135822D01*
X0186832Y0135778D01*
X0186830Y0135733D01*
X0208074Y0119727D02*
X0257877Y0119727D01*
X0257877Y0073861D01*
X0208074Y0073861D01*
X0208074Y0119727D01*
X0174910Y0096800D02*
X0174927Y0098225D01*
X0174980Y0099649D01*
X0175067Y0101072D01*
X0175190Y0102492D01*
X0175347Y0103908D01*
X0175539Y0105321D01*
X0175765Y0106728D01*
X0176026Y0108129D01*
X0176321Y0109523D01*
X0176650Y0110910D01*
X0177014Y0112288D01*
X0177410Y0113657D01*
X0177841Y0115015D01*
X0178305Y0116363D01*
X0178801Y0117699D01*
X0179330Y0119022D01*
X0179892Y0120332D01*
X0180485Y0121628D01*
X0181110Y0122909D01*
X0181767Y0124174D01*
X0182454Y0125423D01*
X0183172Y0126654D01*
X0183919Y0127867D01*
X0184697Y0129062D01*
X0185503Y0130237D01*
X0186338Y0131392D01*
X0187201Y0132526D01*
X0188091Y0133639D01*
X0189009Y0134730D01*
X0189953Y0135797D01*
X0190923Y0136842D01*
X0191918Y0137862D01*
X0192938Y0138857D01*
X0193983Y0139827D01*
X0195050Y0140771D01*
X0196141Y0141689D01*
X0197254Y0142579D01*
X0198388Y0143442D01*
X0199543Y0144277D01*
X0200718Y0145083D01*
X0201913Y0145861D01*
X0203126Y0146608D01*
X0204357Y0147326D01*
X0205606Y0148013D01*
X0206871Y0148670D01*
X0208152Y0149295D01*
X0209448Y0149888D01*
X0210758Y0150450D01*
X0212081Y0150979D01*
X0213417Y0151475D01*
X0214765Y0151939D01*
X0216123Y0152370D01*
X0217492Y0152766D01*
X0218870Y0153130D01*
X0220257Y0153459D01*
X0221651Y0153754D01*
X0223052Y0154015D01*
X0224459Y0154241D01*
X0225872Y0154433D01*
X0227288Y0154590D01*
X0228708Y0154713D01*
X0230131Y0154800D01*
X0231555Y0154853D01*
X0232980Y0154870D01*
X0234405Y0154853D01*
X0235829Y0154800D01*
X0237252Y0154713D01*
X0238672Y0154590D01*
X0240088Y0154433D01*
X0241501Y0154241D01*
X0242908Y0154015D01*
X0244309Y0153754D01*
X0245703Y0153459D01*
X0247090Y0153130D01*
X0248468Y0152766D01*
X0249837Y0152370D01*
X0251195Y0151939D01*
X0252543Y0151475D01*
X0253879Y0150979D01*
X0255202Y0150450D01*
X0256512Y0149888D01*
X0257808Y0149295D01*
X0259089Y0148670D01*
X0260354Y0148013D01*
X0261603Y0147326D01*
X0262834Y0146608D01*
X0264047Y0145861D01*
X0265242Y0145083D01*
X0266417Y0144277D01*
X0267572Y0143442D01*
X0268706Y0142579D01*
X0269819Y0141689D01*
X0270910Y0140771D01*
X0271977Y0139827D01*
X0273022Y0138857D01*
X0274042Y0137862D01*
X0275037Y0136842D01*
X0276007Y0135797D01*
X0276951Y0134730D01*
X0277869Y0133639D01*
X0278759Y0132526D01*
X0279622Y0131392D01*
X0280457Y0130237D01*
X0281263Y0129062D01*
X0282041Y0127867D01*
X0282788Y0126654D01*
X0283506Y0125423D01*
X0284193Y0124174D01*
X0284850Y0122909D01*
X0285475Y0121628D01*
X0286068Y0120332D01*
X0286630Y0119022D01*
X0287159Y0117699D01*
X0287655Y0116363D01*
X0288119Y0115015D01*
X0288550Y0113657D01*
X0288946Y0112288D01*
X0289310Y0110910D01*
X0289639Y0109523D01*
X0289934Y0108129D01*
X0290195Y0106728D01*
X0290421Y0105321D01*
X0290613Y0103908D01*
X0290770Y0102492D01*
X0290893Y0101072D01*
X0290980Y0099649D01*
X0291033Y0098225D01*
X0291050Y0096800D01*
X0291033Y0095375D01*
X0290980Y0093951D01*
X0290893Y0092528D01*
X0290770Y0091108D01*
X0290613Y0089692D01*
X0290421Y0088279D01*
X0290195Y0086872D01*
X0289934Y0085471D01*
X0289639Y0084077D01*
X0289310Y0082690D01*
X0288946Y0081312D01*
X0288550Y0079943D01*
X0288119Y0078585D01*
X0287655Y0077237D01*
X0287159Y0075901D01*
X0286630Y0074578D01*
X0286068Y0073268D01*
X0285475Y0071972D01*
X0284850Y0070691D01*
X0284193Y0069426D01*
X0283506Y0068177D01*
X0282788Y0066946D01*
X0282041Y0065733D01*
X0281263Y0064538D01*
X0280457Y0063363D01*
X0279622Y0062208D01*
X0278759Y0061074D01*
X0277869Y0059961D01*
X0276951Y0058870D01*
X0276007Y0057803D01*
X0275037Y0056758D01*
X0274042Y0055738D01*
X0273022Y0054743D01*
X0271977Y0053773D01*
X0270910Y0052829D01*
X0269819Y0051911D01*
X0268706Y0051021D01*
X0267572Y0050158D01*
X0266417Y0049323D01*
X0265242Y0048517D01*
X0264047Y0047739D01*
X0262834Y0046992D01*
X0261603Y0046274D01*
X0260354Y0045587D01*
X0259089Y0044930D01*
X0257808Y0044305D01*
X0256512Y0043712D01*
X0255202Y0043150D01*
X0253879Y0042621D01*
X0252543Y0042125D01*
X0251195Y0041661D01*
X0249837Y0041230D01*
X0248468Y0040834D01*
X0247090Y0040470D01*
X0245703Y0040141D01*
X0244309Y0039846D01*
X0242908Y0039585D01*
X0241501Y0039359D01*
X0240088Y0039167D01*
X0238672Y0039010D01*
X0237252Y0038887D01*
X0235829Y0038800D01*
X0234405Y0038747D01*
X0232980Y0038730D01*
X0231555Y0038747D01*
X0230131Y0038800D01*
X0228708Y0038887D01*
X0227288Y0039010D01*
X0225872Y0039167D01*
X0224459Y0039359D01*
X0223052Y0039585D01*
X0221651Y0039846D01*
X0220257Y0040141D01*
X0218870Y0040470D01*
X0217492Y0040834D01*
X0216123Y0041230D01*
X0214765Y0041661D01*
X0213417Y0042125D01*
X0212081Y0042621D01*
X0210758Y0043150D01*
X0209448Y0043712D01*
X0208152Y0044305D01*
X0206871Y0044930D01*
X0205606Y0045587D01*
X0204357Y0046274D01*
X0203126Y0046992D01*
X0201913Y0047739D01*
X0200718Y0048517D01*
X0199543Y0049323D01*
X0198388Y0050158D01*
X0197254Y0051021D01*
X0196141Y0051911D01*
X0195050Y0052829D01*
X0193983Y0053773D01*
X0192938Y0054743D01*
X0191918Y0055738D01*
X0190923Y0056758D01*
X0189953Y0057803D01*
X0189009Y0058870D01*
X0188091Y0059961D01*
X0187201Y0061074D01*
X0186338Y0062208D01*
X0185503Y0063363D01*
X0184697Y0064538D01*
X0183919Y0065733D01*
X0183172Y0066946D01*
X0182454Y0068177D01*
X0181767Y0069426D01*
X0181110Y0070691D01*
X0180485Y0071972D01*
X0179892Y0073268D01*
X0179330Y0074578D01*
X0178801Y0075901D01*
X0178305Y0077237D01*
X0177841Y0078585D01*
X0177410Y0079943D01*
X0177014Y0081312D01*
X0176650Y0082690D01*
X0176321Y0084077D01*
X0176026Y0085471D01*
X0175765Y0086872D01*
X0175539Y0088279D01*
X0175347Y0089692D01*
X0175190Y0091108D01*
X0175067Y0092528D01*
X0174980Y0093951D01*
X0174927Y0095375D01*
X0174910Y0096800D01*
X0166250Y0096800D02*
X0166270Y0098438D01*
X0166330Y0100074D01*
X0166431Y0101709D01*
X0166571Y0103341D01*
X0166752Y0104968D01*
X0166972Y0106591D01*
X0167232Y0108208D01*
X0167532Y0109818D01*
X0167871Y0111421D01*
X0168250Y0113014D01*
X0168667Y0114598D01*
X0169123Y0116171D01*
X0169618Y0117732D01*
X0170151Y0119281D01*
X0170721Y0120816D01*
X0171330Y0122336D01*
X0171975Y0123842D01*
X0172657Y0125331D01*
X0173375Y0126803D01*
X0174129Y0128256D01*
X0174919Y0129691D01*
X0175744Y0131106D01*
X0176603Y0132500D01*
X0177496Y0133873D01*
X0178423Y0135224D01*
X0179382Y0136551D01*
X0180374Y0137854D01*
X0181397Y0139133D01*
X0182451Y0140386D01*
X0183536Y0141613D01*
X0184651Y0142813D01*
X0185795Y0143985D01*
X0186967Y0145129D01*
X0188167Y0146244D01*
X0189394Y0147329D01*
X0190647Y0148383D01*
X0191926Y0149406D01*
X0193229Y0150398D01*
X0194556Y0151357D01*
X0195907Y0152284D01*
X0197280Y0153177D01*
X0198674Y0154036D01*
X0200089Y0154861D01*
X0201524Y0155651D01*
X0202977Y0156405D01*
X0204449Y0157123D01*
X0205938Y0157805D01*
X0207444Y0158450D01*
X0208964Y0159059D01*
X0210499Y0159629D01*
X0212048Y0160162D01*
X0213609Y0160657D01*
X0215182Y0161113D01*
X0216766Y0161530D01*
X0218359Y0161909D01*
X0219962Y0162248D01*
X0221572Y0162548D01*
X0223189Y0162808D01*
X0224812Y0163028D01*
X0226439Y0163209D01*
X0228071Y0163349D01*
X0229706Y0163450D01*
X0231342Y0163510D01*
X0232980Y0163530D01*
X0234618Y0163510D01*
X0236254Y0163450D01*
X0237889Y0163349D01*
X0239521Y0163209D01*
X0241148Y0163028D01*
X0242771Y0162808D01*
X0244388Y0162548D01*
X0245998Y0162248D01*
X0247601Y0161909D01*
X0249194Y0161530D01*
X0250778Y0161113D01*
X0252351Y0160657D01*
X0253912Y0160162D01*
X0255461Y0159629D01*
X0256996Y0159059D01*
X0258516Y0158450D01*
X0260022Y0157805D01*
X0261511Y0157123D01*
X0262983Y0156405D01*
X0264436Y0155651D01*
X0265871Y0154861D01*
X0267286Y0154036D01*
X0268680Y0153177D01*
X0270053Y0152284D01*
X0271404Y0151357D01*
X0272731Y0150398D01*
X0274034Y0149406D01*
X0275313Y0148383D01*
X0276566Y0147329D01*
X0277793Y0146244D01*
X0278993Y0145129D01*
X0280165Y0143985D01*
X0281309Y0142813D01*
X0282424Y0141613D01*
X0283509Y0140386D01*
X0284563Y0139133D01*
X0285586Y0137854D01*
X0286578Y0136551D01*
X0287537Y0135224D01*
X0288464Y0133873D01*
X0289357Y0132500D01*
X0290216Y0131106D01*
X0291041Y0129691D01*
X0291831Y0128256D01*
X0292585Y0126803D01*
X0293303Y0125331D01*
X0293985Y0123842D01*
X0294630Y0122336D01*
X0295239Y0120816D01*
X0295809Y0119281D01*
X0296342Y0117732D01*
X0296837Y0116171D01*
X0297293Y0114598D01*
X0297710Y0113014D01*
X0298089Y0111421D01*
X0298428Y0109818D01*
X0298728Y0108208D01*
X0298988Y0106591D01*
X0299208Y0104968D01*
X0299389Y0103341D01*
X0299529Y0101709D01*
X0299630Y0100074D01*
X0299690Y0098438D01*
X0299710Y0096800D01*
X0299690Y0095162D01*
X0299630Y0093526D01*
X0299529Y0091891D01*
X0299389Y0090259D01*
X0299208Y0088632D01*
X0298988Y0087009D01*
X0298728Y0085392D01*
X0298428Y0083782D01*
X0298089Y0082179D01*
X0297710Y0080586D01*
X0297293Y0079002D01*
X0296837Y0077429D01*
X0296342Y0075868D01*
X0295809Y0074319D01*
X0295239Y0072784D01*
X0294630Y0071264D01*
X0293985Y0069758D01*
X0293303Y0068269D01*
X0292585Y0066797D01*
X0291831Y0065344D01*
X0291041Y0063909D01*
X0290216Y0062494D01*
X0289357Y0061100D01*
X0288464Y0059727D01*
X0287537Y0058376D01*
X0286578Y0057049D01*
X0285586Y0055746D01*
X0284563Y0054467D01*
X0283509Y0053214D01*
X0282424Y0051987D01*
X0281309Y0050787D01*
X0280165Y0049615D01*
X0278993Y0048471D01*
X0277793Y0047356D01*
X0276566Y0046271D01*
X0275313Y0045217D01*
X0274034Y0044194D01*
X0272731Y0043202D01*
X0271404Y0042243D01*
X0270053Y0041316D01*
X0268680Y0040423D01*
X0267286Y0039564D01*
X0265871Y0038739D01*
X0264436Y0037949D01*
X0262983Y0037195D01*
X0261511Y0036477D01*
X0260022Y0035795D01*
X0258516Y0035150D01*
X0256996Y0034541D01*
X0255461Y0033971D01*
X0253912Y0033438D01*
X0252351Y0032943D01*
X0250778Y0032487D01*
X0249194Y0032070D01*
X0247601Y0031691D01*
X0245998Y0031352D01*
X0244388Y0031052D01*
X0242771Y0030792D01*
X0241148Y0030572D01*
X0239521Y0030391D01*
X0237889Y0030251D01*
X0236254Y0030150D01*
X0234618Y0030090D01*
X0232980Y0030070D01*
X0231342Y0030090D01*
X0229706Y0030150D01*
X0228071Y0030251D01*
X0226439Y0030391D01*
X0224812Y0030572D01*
X0223189Y0030792D01*
X0221572Y0031052D01*
X0219962Y0031352D01*
X0218359Y0031691D01*
X0216766Y0032070D01*
X0215182Y0032487D01*
X0213609Y0032943D01*
X0212048Y0033438D01*
X0210499Y0033971D01*
X0208964Y0034541D01*
X0207444Y0035150D01*
X0205938Y0035795D01*
X0204449Y0036477D01*
X0202977Y0037195D01*
X0201524Y0037949D01*
X0200089Y0038739D01*
X0198674Y0039564D01*
X0197280Y0040423D01*
X0195907Y0041316D01*
X0194556Y0042243D01*
X0193229Y0043202D01*
X0191926Y0044194D01*
X0190647Y0045217D01*
X0189394Y0046271D01*
X0188167Y0047356D01*
X0186967Y0048471D01*
X0185795Y0049615D01*
X0184651Y0050787D01*
X0183536Y0051987D01*
X0182451Y0053214D01*
X0181397Y0054467D01*
X0180374Y0055746D01*
X0179382Y0057049D01*
X0178423Y0058376D01*
X0177496Y0059727D01*
X0176603Y0061100D01*
X0175744Y0062494D01*
X0174919Y0063909D01*
X0174129Y0065344D01*
X0173375Y0066797D01*
X0172657Y0068269D01*
X0171975Y0069758D01*
X0171330Y0071264D01*
X0170721Y0072784D01*
X0170151Y0074319D01*
X0169618Y0075868D01*
X0169123Y0077429D01*
X0168667Y0079002D01*
X0168250Y0080586D01*
X0167871Y0082179D01*
X0167532Y0083782D01*
X0167232Y0085392D01*
X0166972Y0087009D01*
X0166752Y0088632D01*
X0166571Y0090259D01*
X0166431Y0091891D01*
X0166330Y0093526D01*
X0166270Y0095162D01*
X0166250Y0096800D01*
X0313830Y0034950D02*
X0315730Y0034950D01*
X0314674Y0034950D02*
X0314674Y0033894D01*
X0313830Y0033894D02*
X0315730Y0033894D01*
X0315730Y0032855D02*
X0315730Y0032433D01*
X0315728Y0032394D01*
X0315723Y0032355D01*
X0315714Y0032318D01*
X0315702Y0032281D01*
X0315686Y0032245D01*
X0315667Y0032211D01*
X0315645Y0032179D01*
X0315620Y0032149D01*
X0315592Y0032121D01*
X0315562Y0032096D01*
X0315530Y0032074D01*
X0315496Y0032055D01*
X0315460Y0032039D01*
X0315423Y0032027D01*
X0315386Y0032018D01*
X0315347Y0032013D01*
X0315308Y0032011D01*
X0314252Y0032011D01*
X0314213Y0032013D01*
X0314174Y0032018D01*
X0314137Y0032027D01*
X0314100Y0032039D01*
X0314064Y0032055D01*
X0314030Y0032074D01*
X0313998Y0032096D01*
X0313968Y0032121D01*
X0313940Y0032149D01*
X0313915Y0032179D01*
X0313893Y0032211D01*
X0313874Y0032245D01*
X0313859Y0032281D01*
X0313846Y0032317D01*
X0313837Y0032355D01*
X0313832Y0032394D01*
X0313830Y0032433D01*
X0313830Y0032855D01*
X0313830Y0031062D02*
X0313830Y0030006D01*
X0313830Y0030534D02*
X0315730Y0030534D01*
X0315730Y0029161D02*
X0315730Y0028739D01*
X0315730Y0028950D02*
X0313830Y0028950D01*
X0313830Y0028739D02*
X0313830Y0029161D01*
X0313830Y0027778D02*
X0315730Y0027356D01*
X0314463Y0026934D01*
X0315730Y0026512D01*
X0313830Y0026090D01*
X0314622Y0024294D02*
X0314599Y0024260D01*
X0314574Y0024229D01*
X0314546Y0024200D01*
X0314515Y0024173D01*
X0314482Y0024150D01*
X0314447Y0024130D01*
X0314410Y0024113D01*
X0314372Y0024100D01*
X0314333Y0024091D01*
X0314292Y0024085D01*
X0314252Y0024083D01*
X0314213Y0024085D01*
X0314174Y0024090D01*
X0314137Y0024099D01*
X0314100Y0024111D01*
X0314064Y0024127D01*
X0314030Y0024146D01*
X0313998Y0024168D01*
X0313968Y0024193D01*
X0313940Y0024221D01*
X0313915Y0024251D01*
X0313893Y0024283D01*
X0313874Y0024317D01*
X0313858Y0024353D01*
X0313846Y0024390D01*
X0313837Y0024427D01*
X0313832Y0024466D01*
X0313830Y0024505D01*
X0313832Y0024556D01*
X0313837Y0024607D01*
X0313845Y0024657D01*
X0313856Y0024707D01*
X0313871Y0024755D01*
X0313888Y0024803D01*
X0313909Y0024850D01*
X0313933Y0024895D01*
X0313959Y0024938D01*
X0313988Y0024980D01*
X0315466Y0024031D02*
X0315506Y0024073D01*
X0315544Y0024119D01*
X0315578Y0024166D01*
X0315609Y0024216D01*
X0315637Y0024268D01*
X0315661Y0024321D01*
X0315682Y0024376D01*
X0315699Y0024432D01*
X0315713Y0024489D01*
X0315722Y0024547D01*
X0315728Y0024605D01*
X0315730Y0024664D01*
X0315728Y0024703D01*
X0315723Y0024742D01*
X0315714Y0024779D01*
X0315702Y0024816D01*
X0315686Y0024852D01*
X0315667Y0024886D01*
X0315645Y0024918D01*
X0315620Y0024948D01*
X0315592Y0024976D01*
X0315562Y0025001D01*
X0315530Y0025023D01*
X0315496Y0025042D01*
X0315460Y0025058D01*
X0315423Y0025070D01*
X0315386Y0025079D01*
X0315347Y0025084D01*
X0315308Y0025086D01*
X0314938Y0024875D02*
X0314622Y0024294D01*
X0314938Y0024875D02*
X0314961Y0024909D01*
X0314986Y0024940D01*
X0315014Y0024969D01*
X0315045Y0024996D01*
X0315078Y0025019D01*
X0315113Y0025039D01*
X0315150Y0025056D01*
X0315188Y0025069D01*
X0315227Y0025078D01*
X0315268Y0025084D01*
X0315308Y0025086D01*
X0315941Y0023108D02*
X0315941Y0022264D01*
X0315730Y0020886D02*
X0313830Y0020886D01*
X0313830Y0020358D02*
X0313830Y0021414D01*
X0313830Y0019503D02*
X0315730Y0018237D01*
X0315730Y0017394D02*
X0315730Y0016550D01*
X0313830Y0016550D01*
X0313830Y0017394D01*
X0313830Y0018237D02*
X0315730Y0019503D01*
X0314674Y0017183D02*
X0314674Y0016550D01*
X0415230Y0016868D02*
X0415230Y0017396D01*
X0415232Y0017436D01*
X0415238Y0017476D01*
X0415247Y0017515D01*
X0415260Y0017553D01*
X0415277Y0017589D01*
X0415297Y0017624D01*
X0415320Y0017657D01*
X0415347Y0017687D01*
X0415376Y0017715D01*
X0415407Y0017740D01*
X0415441Y0017761D01*
X0415477Y0017780D01*
X0415514Y0017795D01*
X0415553Y0017806D01*
X0415592Y0017814D01*
X0415632Y0017818D01*
X0415672Y0017818D01*
X0415712Y0017814D01*
X0415751Y0017806D01*
X0415790Y0017795D01*
X0415827Y0017780D01*
X0415863Y0017761D01*
X0415897Y0017740D01*
X0415928Y0017715D01*
X0415957Y0017687D01*
X0415984Y0017657D01*
X0416007Y0017624D01*
X0416027Y0017589D01*
X0416044Y0017553D01*
X0416057Y0017515D01*
X0416066Y0017476D01*
X0416072Y0017436D01*
X0416074Y0017396D01*
X0416074Y0016868D01*
X0416074Y0017396D02*
X0416076Y0017441D01*
X0416082Y0017485D01*
X0416091Y0017529D01*
X0416104Y0017572D01*
X0416121Y0017613D01*
X0416141Y0017654D01*
X0416165Y0017692D01*
X0416191Y0017728D01*
X0416221Y0017761D01*
X0416253Y0017792D01*
X0416288Y0017821D01*
X0416325Y0017846D01*
X0416364Y0017867D01*
X0416405Y0017886D01*
X0416447Y0017901D01*
X0416491Y0017912D01*
X0416535Y0017920D01*
X0416580Y0017924D01*
X0416624Y0017924D01*
X0416669Y0017920D01*
X0416713Y0017912D01*
X0416757Y0017901D01*
X0416799Y0017886D01*
X0416840Y0017867D01*
X0416879Y0017846D01*
X0416916Y0017821D01*
X0416951Y0017792D01*
X0416983Y0017761D01*
X0417013Y0017728D01*
X0417039Y0017692D01*
X0417063Y0017654D01*
X0417083Y0017613D01*
X0417100Y0017572D01*
X0417113Y0017529D01*
X0417122Y0017485D01*
X0417128Y0017441D01*
X0417130Y0017396D01*
X0417130Y0016868D01*
X0415230Y0016868D01*
X0416655Y0018951D02*
X0416655Y0019901D01*
X0417130Y0020060D02*
X0415230Y0019426D01*
X0417130Y0018793D01*
X0415230Y0020915D02*
X0415230Y0021970D01*
X0415230Y0021442D02*
X0417130Y0021442D01*
X0417341Y0022820D02*
X0417341Y0023664D01*
X0416708Y0024647D02*
X0415652Y0024647D01*
X0415613Y0024649D01*
X0415574Y0024654D01*
X0415537Y0024663D01*
X0415500Y0024675D01*
X0415464Y0024691D01*
X0415430Y0024710D01*
X0415398Y0024732D01*
X0415368Y0024757D01*
X0415340Y0024785D01*
X0415315Y0024815D01*
X0415293Y0024847D01*
X0415274Y0024881D01*
X0415259Y0024917D01*
X0415246Y0024953D01*
X0415237Y0024991D01*
X0415232Y0025030D01*
X0415230Y0025069D01*
X0415230Y0025492D01*
X0415758Y0026458D02*
X0416602Y0026458D01*
X0416647Y0026460D01*
X0416691Y0026466D01*
X0416735Y0026475D01*
X0416778Y0026488D01*
X0416819Y0026505D01*
X0416860Y0026525D01*
X0416898Y0026549D01*
X0416934Y0026575D01*
X0416967Y0026605D01*
X0416998Y0026637D01*
X0417027Y0026672D01*
X0417052Y0026709D01*
X0417073Y0026748D01*
X0417092Y0026789D01*
X0417107Y0026831D01*
X0417118Y0026875D01*
X0417126Y0026919D01*
X0417130Y0026964D01*
X0417130Y0027008D01*
X0417126Y0027053D01*
X0417118Y0027097D01*
X0417107Y0027141D01*
X0417092Y0027183D01*
X0417073Y0027224D01*
X0417052Y0027263D01*
X0417027Y0027300D01*
X0416998Y0027335D01*
X0416967Y0027367D01*
X0416934Y0027397D01*
X0416898Y0027423D01*
X0416860Y0027447D01*
X0416819Y0027467D01*
X0416778Y0027484D01*
X0416735Y0027497D01*
X0416691Y0027506D01*
X0416647Y0027512D01*
X0416602Y0027514D01*
X0415758Y0027514D01*
X0415713Y0027512D01*
X0415669Y0027506D01*
X0415625Y0027497D01*
X0415582Y0027484D01*
X0415541Y0027467D01*
X0415500Y0027447D01*
X0415462Y0027423D01*
X0415426Y0027397D01*
X0415393Y0027367D01*
X0415362Y0027335D01*
X0415333Y0027300D01*
X0415308Y0027263D01*
X0415287Y0027224D01*
X0415268Y0027183D01*
X0415253Y0027141D01*
X0415242Y0027097D01*
X0415234Y0027053D01*
X0415230Y0027008D01*
X0415230Y0026964D01*
X0415234Y0026919D01*
X0415242Y0026875D01*
X0415253Y0026831D01*
X0415268Y0026789D01*
X0415287Y0026748D01*
X0415308Y0026709D01*
X0415333Y0026672D01*
X0415362Y0026637D01*
X0415393Y0026605D01*
X0415426Y0026575D01*
X0415462Y0026549D01*
X0415500Y0026525D01*
X0415541Y0026505D01*
X0415582Y0026488D01*
X0415625Y0026475D01*
X0415669Y0026466D01*
X0415713Y0026460D01*
X0415758Y0026458D01*
X0417130Y0025492D02*
X0417130Y0025069D01*
X0417128Y0025030D01*
X0417123Y0024991D01*
X0417114Y0024954D01*
X0417102Y0024917D01*
X0417086Y0024881D01*
X0417067Y0024847D01*
X0417045Y0024815D01*
X0417020Y0024785D01*
X0416992Y0024757D01*
X0416962Y0024732D01*
X0416930Y0024710D01*
X0416896Y0024691D01*
X0416860Y0024675D01*
X0416823Y0024663D01*
X0416786Y0024654D01*
X0416747Y0024649D01*
X0416708Y0024647D01*
X0417130Y0028690D02*
X0415230Y0028690D01*
X0417130Y0029746D01*
X0415230Y0029746D01*
X0415230Y0030994D02*
X0417130Y0032050D01*
X0415230Y0032050D01*
X0415230Y0030994D02*
X0417130Y0030994D01*
X0416602Y0056523D02*
X0415230Y0056523D01*
X0415230Y0057578D02*
X0416602Y0057578D01*
X0416647Y0057576D01*
X0416691Y0057570D01*
X0416735Y0057561D01*
X0416778Y0057548D01*
X0416819Y0057531D01*
X0416860Y0057511D01*
X0416898Y0057487D01*
X0416934Y0057461D01*
X0416967Y0057431D01*
X0416998Y0057399D01*
X0417027Y0057364D01*
X0417052Y0057327D01*
X0417073Y0057288D01*
X0417092Y0057247D01*
X0417107Y0057205D01*
X0417118Y0057161D01*
X0417126Y0057117D01*
X0417130Y0057072D01*
X0417130Y0057028D01*
X0417126Y0056983D01*
X0417118Y0056939D01*
X0417107Y0056895D01*
X0417092Y0056853D01*
X0417073Y0056812D01*
X0417052Y0056773D01*
X0417027Y0056736D01*
X0416998Y0056701D01*
X0416967Y0056669D01*
X0416934Y0056639D01*
X0416898Y0056613D01*
X0416860Y0056589D01*
X0416819Y0056569D01*
X0416778Y0056552D01*
X0416735Y0056539D01*
X0416691Y0056530D01*
X0416647Y0056524D01*
X0416602Y0056522D01*
X0416022Y0058946D02*
X0416338Y0059527D01*
X0417130Y0059316D02*
X0417128Y0059257D01*
X0417122Y0059199D01*
X0417113Y0059141D01*
X0417099Y0059084D01*
X0417082Y0059028D01*
X0417061Y0058973D01*
X0417037Y0058920D01*
X0417009Y0058868D01*
X0416978Y0058818D01*
X0416944Y0058771D01*
X0416906Y0058725D01*
X0416866Y0058683D01*
X0416338Y0059527D02*
X0416361Y0059561D01*
X0416386Y0059592D01*
X0416414Y0059621D01*
X0416445Y0059648D01*
X0416478Y0059671D01*
X0416513Y0059691D01*
X0416550Y0059708D01*
X0416588Y0059721D01*
X0416627Y0059730D01*
X0416668Y0059736D01*
X0416708Y0059738D01*
X0416747Y0059736D01*
X0416786Y0059731D01*
X0416823Y0059722D01*
X0416860Y0059710D01*
X0416896Y0059694D01*
X0416930Y0059675D01*
X0416962Y0059653D01*
X0416992Y0059628D01*
X0417020Y0059600D01*
X0417045Y0059570D01*
X0417067Y0059538D01*
X0417086Y0059504D01*
X0417102Y0059468D01*
X0417114Y0059431D01*
X0417123Y0059394D01*
X0417128Y0059355D01*
X0417130Y0059316D01*
X0415388Y0059633D02*
X0415359Y0059591D01*
X0415333Y0059548D01*
X0415309Y0059503D01*
X0415288Y0059456D01*
X0415271Y0059408D01*
X0415256Y0059360D01*
X0415245Y0059310D01*
X0415237Y0059260D01*
X0415232Y0059209D01*
X0415230Y0059158D01*
X0415232Y0059119D01*
X0415237Y0059080D01*
X0415246Y0059043D01*
X0415258Y0059006D01*
X0415274Y0058970D01*
X0415293Y0058936D01*
X0415315Y0058904D01*
X0415340Y0058874D01*
X0415368Y0058846D01*
X0415398Y0058821D01*
X0415430Y0058799D01*
X0415464Y0058780D01*
X0415500Y0058764D01*
X0415537Y0058752D01*
X0415574Y0058743D01*
X0415613Y0058738D01*
X0415652Y0058736D01*
X0415652Y0058735D02*
X0415692Y0058737D01*
X0415733Y0058743D01*
X0415772Y0058752D01*
X0415810Y0058765D01*
X0415847Y0058782D01*
X0415882Y0058802D01*
X0415915Y0058825D01*
X0415946Y0058852D01*
X0415974Y0058881D01*
X0415999Y0058912D01*
X0416022Y0058946D01*
X0416074Y0060900D02*
X0416074Y0061428D01*
X0416072Y0061468D01*
X0416066Y0061508D01*
X0416057Y0061547D01*
X0416044Y0061585D01*
X0416027Y0061621D01*
X0416007Y0061656D01*
X0415984Y0061689D01*
X0415957Y0061719D01*
X0415928Y0061747D01*
X0415897Y0061772D01*
X0415863Y0061793D01*
X0415827Y0061812D01*
X0415790Y0061827D01*
X0415751Y0061838D01*
X0415712Y0061846D01*
X0415672Y0061850D01*
X0415632Y0061850D01*
X0415592Y0061846D01*
X0415553Y0061838D01*
X0415514Y0061827D01*
X0415477Y0061812D01*
X0415441Y0061793D01*
X0415407Y0061772D01*
X0415376Y0061747D01*
X0415347Y0061719D01*
X0415320Y0061689D01*
X0415297Y0061656D01*
X0415277Y0061621D01*
X0415260Y0061585D01*
X0415247Y0061547D01*
X0415238Y0061508D01*
X0415232Y0061468D01*
X0415230Y0061428D01*
X0415230Y0060900D01*
X0417130Y0060900D01*
X0417130Y0061428D01*
X0417128Y0061473D01*
X0417122Y0061517D01*
X0417113Y0061561D01*
X0417100Y0061604D01*
X0417083Y0061645D01*
X0417063Y0061686D01*
X0417039Y0061724D01*
X0417013Y0061760D01*
X0416983Y0061793D01*
X0416951Y0061824D01*
X0416916Y0061853D01*
X0416879Y0061878D01*
X0416840Y0061899D01*
X0416799Y0061918D01*
X0416757Y0061933D01*
X0416713Y0061944D01*
X0416669Y0061952D01*
X0416624Y0061956D01*
X0416580Y0061956D01*
X0416535Y0061952D01*
X0416491Y0061944D01*
X0416447Y0061933D01*
X0416405Y0061918D01*
X0416364Y0061899D01*
X0416325Y0061878D01*
X0416288Y0061853D01*
X0416253Y0061824D01*
X0416221Y0061793D01*
X0416191Y0061760D01*
X0416165Y0061724D01*
X0416141Y0061686D01*
X0416121Y0061645D01*
X0416104Y0061604D01*
X0416091Y0061561D01*
X0416082Y0061517D01*
X0416076Y0061473D01*
X0416074Y0061428D01*
X0417341Y0062820D02*
X0417341Y0063664D01*
X0416708Y0064647D02*
X0415652Y0064647D01*
X0415613Y0064649D01*
X0415574Y0064654D01*
X0415537Y0064663D01*
X0415500Y0064675D01*
X0415464Y0064691D01*
X0415430Y0064710D01*
X0415398Y0064732D01*
X0415368Y0064757D01*
X0415340Y0064785D01*
X0415315Y0064815D01*
X0415293Y0064847D01*
X0415274Y0064881D01*
X0415259Y0064917D01*
X0415246Y0064953D01*
X0415237Y0064991D01*
X0415232Y0065030D01*
X0415230Y0065069D01*
X0415230Y0065492D01*
X0415758Y0066458D02*
X0416602Y0066458D01*
X0416647Y0066460D01*
X0416691Y0066466D01*
X0416735Y0066475D01*
X0416778Y0066488D01*
X0416819Y0066505D01*
X0416860Y0066525D01*
X0416898Y0066549D01*
X0416934Y0066575D01*
X0416967Y0066605D01*
X0416998Y0066637D01*
X0417027Y0066672D01*
X0417052Y0066709D01*
X0417073Y0066748D01*
X0417092Y0066789D01*
X0417107Y0066831D01*
X0417118Y0066875D01*
X0417126Y0066919D01*
X0417130Y0066964D01*
X0417130Y0067008D01*
X0417126Y0067053D01*
X0417118Y0067097D01*
X0417107Y0067141D01*
X0417092Y0067183D01*
X0417073Y0067224D01*
X0417052Y0067263D01*
X0417027Y0067300D01*
X0416998Y0067335D01*
X0416967Y0067367D01*
X0416934Y0067397D01*
X0416898Y0067423D01*
X0416860Y0067447D01*
X0416819Y0067467D01*
X0416778Y0067484D01*
X0416735Y0067497D01*
X0416691Y0067506D01*
X0416647Y0067512D01*
X0416602Y0067514D01*
X0415758Y0067514D01*
X0415713Y0067512D01*
X0415669Y0067506D01*
X0415625Y0067497D01*
X0415582Y0067484D01*
X0415541Y0067467D01*
X0415500Y0067447D01*
X0415462Y0067423D01*
X0415426Y0067397D01*
X0415393Y0067367D01*
X0415362Y0067335D01*
X0415333Y0067300D01*
X0415308Y0067263D01*
X0415287Y0067224D01*
X0415268Y0067183D01*
X0415253Y0067141D01*
X0415242Y0067097D01*
X0415234Y0067053D01*
X0415230Y0067008D01*
X0415230Y0066964D01*
X0415234Y0066919D01*
X0415242Y0066875D01*
X0415253Y0066831D01*
X0415268Y0066789D01*
X0415287Y0066748D01*
X0415308Y0066709D01*
X0415333Y0066672D01*
X0415362Y0066637D01*
X0415393Y0066605D01*
X0415426Y0066575D01*
X0415462Y0066549D01*
X0415500Y0066525D01*
X0415541Y0066505D01*
X0415582Y0066488D01*
X0415625Y0066475D01*
X0415669Y0066466D01*
X0415713Y0066460D01*
X0415758Y0066458D01*
X0417130Y0065492D02*
X0417130Y0065069D01*
X0417128Y0065030D01*
X0417123Y0064991D01*
X0417114Y0064954D01*
X0417102Y0064917D01*
X0417086Y0064881D01*
X0417067Y0064847D01*
X0417045Y0064815D01*
X0417020Y0064785D01*
X0416992Y0064757D01*
X0416962Y0064732D01*
X0416930Y0064710D01*
X0416896Y0064691D01*
X0416860Y0064675D01*
X0416823Y0064663D01*
X0416786Y0064654D01*
X0416747Y0064649D01*
X0416708Y0064647D01*
X0417130Y0068690D02*
X0415230Y0068690D01*
X0417130Y0069746D01*
X0415230Y0069746D01*
X0415230Y0070994D02*
X0417130Y0072050D01*
X0415230Y0072050D01*
X0415230Y0070994D02*
X0417130Y0070994D01*
X0422877Y0073861D02*
X0422877Y0119727D01*
X0373074Y0119727D01*
X0373074Y0073861D01*
X0422877Y0073861D01*
X0339910Y0096800D02*
X0339927Y0098225D01*
X0339980Y0099649D01*
X0340067Y0101072D01*
X0340190Y0102492D01*
X0340347Y0103908D01*
X0340539Y0105321D01*
X0340765Y0106728D01*
X0341026Y0108129D01*
X0341321Y0109523D01*
X0341650Y0110910D01*
X0342014Y0112288D01*
X0342410Y0113657D01*
X0342841Y0115015D01*
X0343305Y0116363D01*
X0343801Y0117699D01*
X0344330Y0119022D01*
X0344892Y0120332D01*
X0345485Y0121628D01*
X0346110Y0122909D01*
X0346767Y0124174D01*
X0347454Y0125423D01*
X0348172Y0126654D01*
X0348919Y0127867D01*
X0349697Y0129062D01*
X0350503Y0130237D01*
X0351338Y0131392D01*
X0352201Y0132526D01*
X0353091Y0133639D01*
X0354009Y0134730D01*
X0354953Y0135797D01*
X0355923Y0136842D01*
X0356918Y0137862D01*
X0357938Y0138857D01*
X0358983Y0139827D01*
X0360050Y0140771D01*
X0361141Y0141689D01*
X0362254Y0142579D01*
X0363388Y0143442D01*
X0364543Y0144277D01*
X0365718Y0145083D01*
X0366913Y0145861D01*
X0368126Y0146608D01*
X0369357Y0147326D01*
X0370606Y0148013D01*
X0371871Y0148670D01*
X0373152Y0149295D01*
X0374448Y0149888D01*
X0375758Y0150450D01*
X0377081Y0150979D01*
X0378417Y0151475D01*
X0379765Y0151939D01*
X0381123Y0152370D01*
X0382492Y0152766D01*
X0383870Y0153130D01*
X0385257Y0153459D01*
X0386651Y0153754D01*
X0388052Y0154015D01*
X0389459Y0154241D01*
X0390872Y0154433D01*
X0392288Y0154590D01*
X0393708Y0154713D01*
X0395131Y0154800D01*
X0396555Y0154853D01*
X0397980Y0154870D01*
X0399405Y0154853D01*
X0400829Y0154800D01*
X0402252Y0154713D01*
X0403672Y0154590D01*
X0405088Y0154433D01*
X0406501Y0154241D01*
X0407908Y0154015D01*
X0409309Y0153754D01*
X0410703Y0153459D01*
X0412090Y0153130D01*
X0413468Y0152766D01*
X0414837Y0152370D01*
X0416195Y0151939D01*
X0417543Y0151475D01*
X0418879Y0150979D01*
X0420202Y0150450D01*
X0421512Y0149888D01*
X0422808Y0149295D01*
X0424089Y0148670D01*
X0425354Y0148013D01*
X0426603Y0147326D01*
X0427834Y0146608D01*
X0429047Y0145861D01*
X0430242Y0145083D01*
X0431417Y0144277D01*
X0432572Y0143442D01*
X0433706Y0142579D01*
X0434819Y0141689D01*
X0435910Y0140771D01*
X0436977Y0139827D01*
X0438022Y0138857D01*
X0439042Y0137862D01*
X0440037Y0136842D01*
X0441007Y0135797D01*
X0441951Y0134730D01*
X0442869Y0133639D01*
X0443759Y0132526D01*
X0444622Y0131392D01*
X0445457Y0130237D01*
X0446263Y0129062D01*
X0447041Y0127867D01*
X0447788Y0126654D01*
X0448506Y0125423D01*
X0449193Y0124174D01*
X0449850Y0122909D01*
X0450475Y0121628D01*
X0451068Y0120332D01*
X0451630Y0119022D01*
X0452159Y0117699D01*
X0452655Y0116363D01*
X0453119Y0115015D01*
X0453550Y0113657D01*
X0453946Y0112288D01*
X0454310Y0110910D01*
X0454639Y0109523D01*
X0454934Y0108129D01*
X0455195Y0106728D01*
X0455421Y0105321D01*
X0455613Y0103908D01*
X0455770Y0102492D01*
X0455893Y0101072D01*
X0455980Y0099649D01*
X0456033Y0098225D01*
X0456050Y0096800D01*
X0456033Y0095375D01*
X0455980Y0093951D01*
X0455893Y0092528D01*
X0455770Y0091108D01*
X0455613Y0089692D01*
X0455421Y0088279D01*
X0455195Y0086872D01*
X0454934Y0085471D01*
X0454639Y0084077D01*
X0454310Y0082690D01*
X0453946Y0081312D01*
X0453550Y0079943D01*
X0453119Y0078585D01*
X0452655Y0077237D01*
X0452159Y0075901D01*
X0451630Y0074578D01*
X0451068Y0073268D01*
X0450475Y0071972D01*
X0449850Y0070691D01*
X0449193Y0069426D01*
X0448506Y0068177D01*
X0447788Y0066946D01*
X0447041Y0065733D01*
X0446263Y0064538D01*
X0445457Y0063363D01*
X0444622Y0062208D01*
X0443759Y0061074D01*
X0442869Y0059961D01*
X0441951Y0058870D01*
X0441007Y0057803D01*
X0440037Y0056758D01*
X0439042Y0055738D01*
X0438022Y0054743D01*
X0436977Y0053773D01*
X0435910Y0052829D01*
X0434819Y0051911D01*
X0433706Y0051021D01*
X0432572Y0050158D01*
X0431417Y0049323D01*
X0430242Y0048517D01*
X0429047Y0047739D01*
X0427834Y0046992D01*
X0426603Y0046274D01*
X0425354Y0045587D01*
X0424089Y0044930D01*
X0422808Y0044305D01*
X0421512Y0043712D01*
X0420202Y0043150D01*
X0418879Y0042621D01*
X0417543Y0042125D01*
X0416195Y0041661D01*
X0414837Y0041230D01*
X0413468Y0040834D01*
X0412090Y0040470D01*
X0410703Y0040141D01*
X0409309Y0039846D01*
X0407908Y0039585D01*
X0406501Y0039359D01*
X0405088Y0039167D01*
X0403672Y0039010D01*
X0402252Y0038887D01*
X0400829Y0038800D01*
X0399405Y0038747D01*
X0397980Y0038730D01*
X0396555Y0038747D01*
X0395131Y0038800D01*
X0393708Y0038887D01*
X0392288Y0039010D01*
X0390872Y0039167D01*
X0389459Y0039359D01*
X0388052Y0039585D01*
X0386651Y0039846D01*
X0385257Y0040141D01*
X0383870Y0040470D01*
X0382492Y0040834D01*
X0381123Y0041230D01*
X0379765Y0041661D01*
X0378417Y0042125D01*
X0377081Y0042621D01*
X0375758Y0043150D01*
X0374448Y0043712D01*
X0373152Y0044305D01*
X0371871Y0044930D01*
X0370606Y0045587D01*
X0369357Y0046274D01*
X0368126Y0046992D01*
X0366913Y0047739D01*
X0365718Y0048517D01*
X0364543Y0049323D01*
X0363388Y0050158D01*
X0362254Y0051021D01*
X0361141Y0051911D01*
X0360050Y0052829D01*
X0358983Y0053773D01*
X0357938Y0054743D01*
X0356918Y0055738D01*
X0355923Y0056758D01*
X0354953Y0057803D01*
X0354009Y0058870D01*
X0353091Y0059961D01*
X0352201Y0061074D01*
X0351338Y0062208D01*
X0350503Y0063363D01*
X0349697Y0064538D01*
X0348919Y0065733D01*
X0348172Y0066946D01*
X0347454Y0068177D01*
X0346767Y0069426D01*
X0346110Y0070691D01*
X0345485Y0071972D01*
X0344892Y0073268D01*
X0344330Y0074578D01*
X0343801Y0075901D01*
X0343305Y0077237D01*
X0342841Y0078585D01*
X0342410Y0079943D01*
X0342014Y0081312D01*
X0341650Y0082690D01*
X0341321Y0084077D01*
X0341026Y0085471D01*
X0340765Y0086872D01*
X0340539Y0088279D01*
X0340347Y0089692D01*
X0340190Y0091108D01*
X0340067Y0092528D01*
X0339980Y0093951D01*
X0339927Y0095375D01*
X0339910Y0096800D01*
X0331250Y0096800D02*
X0331270Y0098438D01*
X0331330Y0100074D01*
X0331431Y0101709D01*
X0331571Y0103341D01*
X0331752Y0104968D01*
X0331972Y0106591D01*
X0332232Y0108208D01*
X0332532Y0109818D01*
X0332871Y0111421D01*
X0333250Y0113014D01*
X0333667Y0114598D01*
X0334123Y0116171D01*
X0334618Y0117732D01*
X0335151Y0119281D01*
X0335721Y0120816D01*
X0336330Y0122336D01*
X0336975Y0123842D01*
X0337657Y0125331D01*
X0338375Y0126803D01*
X0339129Y0128256D01*
X0339919Y0129691D01*
X0340744Y0131106D01*
X0341603Y0132500D01*
X0342496Y0133873D01*
X0343423Y0135224D01*
X0344382Y0136551D01*
X0345374Y0137854D01*
X0346397Y0139133D01*
X0347451Y0140386D01*
X0348536Y0141613D01*
X0349651Y0142813D01*
X0350795Y0143985D01*
X0351967Y0145129D01*
X0353167Y0146244D01*
X0354394Y0147329D01*
X0355647Y0148383D01*
X0356926Y0149406D01*
X0358229Y0150398D01*
X0359556Y0151357D01*
X0360907Y0152284D01*
X0362280Y0153177D01*
X0363674Y0154036D01*
X0365089Y0154861D01*
X0366524Y0155651D01*
X0367977Y0156405D01*
X0369449Y0157123D01*
X0370938Y0157805D01*
X0372444Y0158450D01*
X0373964Y0159059D01*
X0375499Y0159629D01*
X0377048Y0160162D01*
X0378609Y0160657D01*
X0380182Y0161113D01*
X0381766Y0161530D01*
X0383359Y0161909D01*
X0384962Y0162248D01*
X0386572Y0162548D01*
X0388189Y0162808D01*
X0389812Y0163028D01*
X0391439Y0163209D01*
X0393071Y0163349D01*
X0394706Y0163450D01*
X0396342Y0163510D01*
X0397980Y0163530D01*
X0399618Y0163510D01*
X0401254Y0163450D01*
X0402889Y0163349D01*
X0404521Y0163209D01*
X0406148Y0163028D01*
X0407771Y0162808D01*
X0409388Y0162548D01*
X0410998Y0162248D01*
X0412601Y0161909D01*
X0414194Y0161530D01*
X0415778Y0161113D01*
X0417351Y0160657D01*
X0418912Y0160162D01*
X0420461Y0159629D01*
X0421996Y0159059D01*
X0423516Y0158450D01*
X0425022Y0157805D01*
X0426511Y0157123D01*
X0427983Y0156405D01*
X0429436Y0155651D01*
X0430871Y0154861D01*
X0432286Y0154036D01*
X0433680Y0153177D01*
X0435053Y0152284D01*
X0436404Y0151357D01*
X0437731Y0150398D01*
X0439034Y0149406D01*
X0440313Y0148383D01*
X0441566Y0147329D01*
X0442793Y0146244D01*
X0443993Y0145129D01*
X0445165Y0143985D01*
X0446309Y0142813D01*
X0447424Y0141613D01*
X0448509Y0140386D01*
X0449563Y0139133D01*
X0450586Y0137854D01*
X0451578Y0136551D01*
X0452537Y0135224D01*
X0453464Y0133873D01*
X0454357Y0132500D01*
X0455216Y0131106D01*
X0456041Y0129691D01*
X0456831Y0128256D01*
X0457585Y0126803D01*
X0458303Y0125331D01*
X0458985Y0123842D01*
X0459630Y0122336D01*
X0460239Y0120816D01*
X0460809Y0119281D01*
X0461342Y0117732D01*
X0461837Y0116171D01*
X0462293Y0114598D01*
X0462710Y0113014D01*
X0463089Y0111421D01*
X0463428Y0109818D01*
X0463728Y0108208D01*
X0463988Y0106591D01*
X0464208Y0104968D01*
X0464389Y0103341D01*
X0464529Y0101709D01*
X0464630Y0100074D01*
X0464690Y0098438D01*
X0464710Y0096800D01*
X0464690Y0095162D01*
X0464630Y0093526D01*
X0464529Y0091891D01*
X0464389Y0090259D01*
X0464208Y0088632D01*
X0463988Y0087009D01*
X0463728Y0085392D01*
X0463428Y0083782D01*
X0463089Y0082179D01*
X0462710Y0080586D01*
X0462293Y0079002D01*
X0461837Y0077429D01*
X0461342Y0075868D01*
X0460809Y0074319D01*
X0460239Y0072784D01*
X0459630Y0071264D01*
X0458985Y0069758D01*
X0458303Y0068269D01*
X0457585Y0066797D01*
X0456831Y0065344D01*
X0456041Y0063909D01*
X0455216Y0062494D01*
X0454357Y0061100D01*
X0453464Y0059727D01*
X0452537Y0058376D01*
X0451578Y0057049D01*
X0450586Y0055746D01*
X0449563Y0054467D01*
X0448509Y0053214D01*
X0447424Y0051987D01*
X0446309Y0050787D01*
X0445165Y0049615D01*
X0443993Y0048471D01*
X0442793Y0047356D01*
X0441566Y0046271D01*
X0440313Y0045217D01*
X0439034Y0044194D01*
X0437731Y0043202D01*
X0436404Y0042243D01*
X0435053Y0041316D01*
X0433680Y0040423D01*
X0432286Y0039564D01*
X0430871Y0038739D01*
X0429436Y0037949D01*
X0427983Y0037195D01*
X0426511Y0036477D01*
X0425022Y0035795D01*
X0423516Y0035150D01*
X0421996Y0034541D01*
X0420461Y0033971D01*
X0418912Y0033438D01*
X0417351Y0032943D01*
X0415778Y0032487D01*
X0414194Y0032070D01*
X0412601Y0031691D01*
X0410998Y0031352D01*
X0409388Y0031052D01*
X0407771Y0030792D01*
X0406148Y0030572D01*
X0404521Y0030391D01*
X0402889Y0030251D01*
X0401254Y0030150D01*
X0399618Y0030090D01*
X0397980Y0030070D01*
X0396342Y0030090D01*
X0394706Y0030150D01*
X0393071Y0030251D01*
X0391439Y0030391D01*
X0389812Y0030572D01*
X0388189Y0030792D01*
X0386572Y0031052D01*
X0384962Y0031352D01*
X0383359Y0031691D01*
X0381766Y0032070D01*
X0380182Y0032487D01*
X0378609Y0032943D01*
X0377048Y0033438D01*
X0375499Y0033971D01*
X0373964Y0034541D01*
X0372444Y0035150D01*
X0370938Y0035795D01*
X0369449Y0036477D01*
X0367977Y0037195D01*
X0366524Y0037949D01*
X0365089Y0038739D01*
X0363674Y0039564D01*
X0362280Y0040423D01*
X0360907Y0041316D01*
X0359556Y0042243D01*
X0358229Y0043202D01*
X0356926Y0044194D01*
X0355647Y0045217D01*
X0354394Y0046271D01*
X0353167Y0047356D01*
X0351967Y0048471D01*
X0350795Y0049615D01*
X0349651Y0050787D01*
X0348536Y0051987D01*
X0347451Y0053214D01*
X0346397Y0054467D01*
X0345374Y0055746D01*
X0344382Y0057049D01*
X0343423Y0058376D01*
X0342496Y0059727D01*
X0341603Y0061100D01*
X0340744Y0062494D01*
X0339919Y0063909D01*
X0339129Y0065344D01*
X0338375Y0066797D01*
X0337657Y0068269D01*
X0336975Y0069758D01*
X0336330Y0071264D01*
X0335721Y0072784D01*
X0335151Y0074319D01*
X0334618Y0075868D01*
X0334123Y0077429D01*
X0333667Y0079002D01*
X0333250Y0080586D01*
X0332871Y0082179D01*
X0332532Y0083782D01*
X0332232Y0085392D01*
X0331972Y0087009D01*
X0331752Y0088632D01*
X0331571Y0090259D01*
X0331431Y0091891D01*
X0331330Y0093526D01*
X0331270Y0095162D01*
X0331250Y0096800D01*
X0219580Y0162050D02*
X0217080Y0162050D01*
X0218330Y0162050D02*
X0218330Y0166550D01*
X0217080Y0165550D01*
X0214055Y0166550D02*
X0214124Y0166548D01*
X0214193Y0166542D01*
X0214261Y0166533D01*
X0214328Y0166520D01*
X0214395Y0166503D01*
X0214461Y0166482D01*
X0214525Y0166458D01*
X0214588Y0166430D01*
X0214650Y0166399D01*
X0214710Y0166365D01*
X0214767Y0166327D01*
X0214823Y0166286D01*
X0214876Y0166243D01*
X0214927Y0166196D01*
X0214975Y0166147D01*
X0215020Y0166095D01*
X0215062Y0166040D01*
X0215101Y0165984D01*
X0215138Y0165925D01*
X0215170Y0165864D01*
X0215200Y0165802D01*
X0215226Y0165738D01*
X0215248Y0165673D01*
X0215267Y0165607D01*
X0215282Y0165540D01*
X0215293Y0165472D01*
X0215301Y0165403D01*
X0215305Y0165334D01*
X0215305Y0165266D01*
X0215301Y0165197D01*
X0215293Y0165128D01*
X0215282Y0165060D01*
X0215267Y0164993D01*
X0215248Y0164927D01*
X0215226Y0164862D01*
X0215200Y0164798D01*
X0215170Y0164736D01*
X0215138Y0164675D01*
X0215101Y0164616D01*
X0215062Y0164560D01*
X0215020Y0164505D01*
X0214975Y0164453D01*
X0214927Y0164404D01*
X0214876Y0164357D01*
X0214823Y0164314D01*
X0214767Y0164273D01*
X0214710Y0164235D01*
X0214650Y0164201D01*
X0214588Y0164170D01*
X0214525Y0164142D01*
X0214461Y0164118D01*
X0214395Y0164097D01*
X0214328Y0164080D01*
X0214261Y0164067D01*
X0214193Y0164058D01*
X0214124Y0164052D01*
X0214055Y0164050D01*
X0212805Y0164050D01*
X0212805Y0162050D02*
X0212805Y0166550D01*
X0214055Y0166550D01*
X0208855Y0164675D02*
X0208803Y0164708D01*
X0208752Y0164744D01*
X0208704Y0164783D01*
X0208659Y0164825D01*
X0208616Y0164870D01*
X0208576Y0164918D01*
X0208539Y0164967D01*
X0208505Y0165019D01*
X0208474Y0165073D01*
X0208446Y0165129D01*
X0208422Y0165186D01*
X0208402Y0165245D01*
X0208385Y0165304D01*
X0208372Y0165365D01*
X0208363Y0165426D01*
X0208357Y0165488D01*
X0208355Y0165550D01*
X0208357Y0165610D01*
X0208362Y0165671D01*
X0208371Y0165730D01*
X0208384Y0165789D01*
X0208400Y0165848D01*
X0208420Y0165905D01*
X0208443Y0165960D01*
X0208470Y0166015D01*
X0208499Y0166067D01*
X0208532Y0166118D01*
X0208568Y0166167D01*
X0208606Y0166213D01*
X0208648Y0166257D01*
X0208692Y0166299D01*
X0208738Y0166337D01*
X0208787Y0166373D01*
X0208838Y0166406D01*
X0208890Y0166435D01*
X0208945Y0166462D01*
X0209000Y0166485D01*
X0209057Y0166505D01*
X0209116Y0166521D01*
X0209175Y0166534D01*
X0209234Y0166543D01*
X0209295Y0166548D01*
X0209355Y0166550D01*
X0209435Y0166548D01*
X0209516Y0166543D01*
X0209596Y0166534D01*
X0209675Y0166522D01*
X0209754Y0166507D01*
X0209832Y0166488D01*
X0209910Y0166466D01*
X0209986Y0166441D01*
X0210061Y0166412D01*
X0210135Y0166380D01*
X0210207Y0166345D01*
X0210278Y0166307D01*
X0210347Y0166266D01*
X0210415Y0166222D01*
X0210480Y0166175D01*
X0208230Y0162675D02*
X0208293Y0162614D01*
X0208358Y0162556D01*
X0208426Y0162500D01*
X0208497Y0162447D01*
X0208569Y0162398D01*
X0208643Y0162351D01*
X0208719Y0162307D01*
X0208797Y0162267D01*
X0208877Y0162230D01*
X0208958Y0162196D01*
X0209040Y0162166D01*
X0209124Y0162139D01*
X0209209Y0162115D01*
X0209294Y0162095D01*
X0209380Y0162079D01*
X0209467Y0162066D01*
X0209555Y0162057D01*
X0209642Y0162052D01*
X0209730Y0162050D01*
X0209790Y0162052D01*
X0209851Y0162057D01*
X0209910Y0162066D01*
X0209969Y0162079D01*
X0210028Y0162095D01*
X0210085Y0162115D01*
X0210140Y0162138D01*
X0210195Y0162165D01*
X0210247Y0162194D01*
X0210298Y0162227D01*
X0210347Y0162263D01*
X0210393Y0162301D01*
X0210437Y0162343D01*
X0210479Y0162387D01*
X0210517Y0162433D01*
X0210553Y0162482D01*
X0210586Y0162533D01*
X0210615Y0162585D01*
X0210642Y0162640D01*
X0210665Y0162695D01*
X0210685Y0162752D01*
X0210701Y0162811D01*
X0210714Y0162870D01*
X0210723Y0162929D01*
X0210728Y0162990D01*
X0210730Y0163050D01*
X0210230Y0163925D02*
X0208855Y0164675D01*
X0210230Y0163925D02*
X0210282Y0163892D01*
X0210333Y0163856D01*
X0210381Y0163817D01*
X0210426Y0163775D01*
X0210469Y0163730D01*
X0210509Y0163682D01*
X0210546Y0163633D01*
X0210580Y0163581D01*
X0210611Y0163527D01*
X0210639Y0163471D01*
X0210663Y0163414D01*
X0210683Y0163355D01*
X0210700Y0163296D01*
X0210713Y0163235D01*
X0210722Y0163174D01*
X0210728Y0163112D01*
X0210730Y0163050D01*
D11*
X0232975Y0096794D02*
X0232975Y0096794D01*
X0067975Y0096794D02*
X0067975Y0096794D01*
X0397975Y0096794D02*
X0397975Y0096794D01*
D12*
X0399530Y0108000D02*
X0402086Y0108000D01*
X0399530Y0108000D02*
X0401702Y0110556D01*
X0400936Y0112600D02*
X0400862Y0112598D01*
X0400788Y0112593D01*
X0400714Y0112583D01*
X0400641Y0112570D01*
X0400568Y0112554D01*
X0400497Y0112533D01*
X0400427Y0112509D01*
X0400358Y0112482D01*
X0400290Y0112451D01*
X0400224Y0112417D01*
X0400160Y0112380D01*
X0400098Y0112339D01*
X0400038Y0112295D01*
X0399980Y0112249D01*
X0399924Y0112199D01*
X0399871Y0112147D01*
X0399821Y0112092D01*
X0399774Y0112035D01*
X0399730Y0111975D01*
X0399688Y0111913D01*
X0399650Y0111850D01*
X0399615Y0111784D01*
X0399584Y0111717D01*
X0399556Y0111648D01*
X0399531Y0111578D01*
X0401702Y0110556D02*
X0401749Y0110603D01*
X0401793Y0110653D01*
X0401835Y0110705D01*
X0401874Y0110759D01*
X0401909Y0110815D01*
X0401942Y0110873D01*
X0401972Y0110933D01*
X0401998Y0110994D01*
X0402021Y0111057D01*
X0402040Y0111121D01*
X0402056Y0111185D01*
X0402069Y0111251D01*
X0402078Y0111317D01*
X0402083Y0111383D01*
X0402085Y0111450D01*
X0402086Y0111450D02*
X0402084Y0111517D01*
X0402078Y0111584D01*
X0402069Y0111650D01*
X0402055Y0111715D01*
X0402038Y0111780D01*
X0402017Y0111843D01*
X0401992Y0111905D01*
X0401964Y0111966D01*
X0401932Y0112025D01*
X0401897Y0112082D01*
X0401858Y0112137D01*
X0401817Y0112189D01*
X0401772Y0112239D01*
X0401725Y0112286D01*
X0401675Y0112331D01*
X0401623Y0112372D01*
X0401568Y0112411D01*
X0401511Y0112446D01*
X0401452Y0112478D01*
X0401391Y0112506D01*
X0401329Y0112531D01*
X0401266Y0112552D01*
X0401201Y0112569D01*
X0401136Y0112583D01*
X0401070Y0112592D01*
X0401003Y0112598D01*
X0400936Y0112600D01*
X0397224Y0109917D02*
X0395819Y0110683D01*
X0396330Y0112600D02*
X0396412Y0112598D01*
X0396494Y0112593D01*
X0396576Y0112584D01*
X0396657Y0112572D01*
X0396738Y0112556D01*
X0396818Y0112537D01*
X0396897Y0112514D01*
X0396975Y0112488D01*
X0397052Y0112459D01*
X0397127Y0112426D01*
X0397201Y0112390D01*
X0397274Y0112352D01*
X0397345Y0112310D01*
X0397413Y0112265D01*
X0397480Y0112217D01*
X0395819Y0110684D02*
X0395765Y0110718D01*
X0395714Y0110755D01*
X0395665Y0110795D01*
X0395618Y0110838D01*
X0395575Y0110884D01*
X0395534Y0110932D01*
X0395496Y0110983D01*
X0395461Y0111036D01*
X0395429Y0111091D01*
X0395401Y0111148D01*
X0395377Y0111206D01*
X0395356Y0111266D01*
X0395339Y0111327D01*
X0395325Y0111389D01*
X0395316Y0111452D01*
X0395310Y0111515D01*
X0395308Y0111578D01*
X0395310Y0111640D01*
X0395315Y0111701D01*
X0395325Y0111762D01*
X0395338Y0111823D01*
X0395354Y0111882D01*
X0395374Y0111940D01*
X0395398Y0111997D01*
X0395425Y0112053D01*
X0395455Y0112107D01*
X0395489Y0112159D01*
X0395526Y0112208D01*
X0395565Y0112256D01*
X0395607Y0112301D01*
X0395652Y0112343D01*
X0395700Y0112383D01*
X0395749Y0112419D01*
X0395801Y0112453D01*
X0395855Y0112483D01*
X0395911Y0112510D01*
X0395968Y0112534D01*
X0396026Y0112554D01*
X0396085Y0112570D01*
X0396146Y0112583D01*
X0396207Y0112593D01*
X0396268Y0112598D01*
X0396330Y0112600D01*
X0395180Y0108639D02*
X0395244Y0108576D01*
X0395312Y0108517D01*
X0395381Y0108460D01*
X0395453Y0108406D01*
X0395527Y0108355D01*
X0395603Y0108307D01*
X0395680Y0108263D01*
X0395760Y0108222D01*
X0395841Y0108184D01*
X0395924Y0108149D01*
X0396008Y0108118D01*
X0396094Y0108091D01*
X0396180Y0108067D01*
X0396268Y0108046D01*
X0396356Y0108030D01*
X0396445Y0108017D01*
X0396534Y0108007D01*
X0396623Y0108002D01*
X0396713Y0108000D01*
X0396775Y0108002D01*
X0396836Y0108007D01*
X0396897Y0108017D01*
X0396958Y0108030D01*
X0397017Y0108046D01*
X0397075Y0108066D01*
X0397132Y0108090D01*
X0397188Y0108117D01*
X0397242Y0108147D01*
X0397294Y0108181D01*
X0397343Y0108217D01*
X0397391Y0108257D01*
X0397436Y0108299D01*
X0397478Y0108344D01*
X0397518Y0108392D01*
X0397554Y0108441D01*
X0397588Y0108493D01*
X0397618Y0108547D01*
X0397645Y0108603D01*
X0397669Y0108660D01*
X0397689Y0108718D01*
X0397705Y0108777D01*
X0397718Y0108838D01*
X0397728Y0108899D01*
X0397733Y0108960D01*
X0397735Y0109022D01*
X0397733Y0109085D01*
X0397727Y0109148D01*
X0397718Y0109211D01*
X0397704Y0109273D01*
X0397687Y0109334D01*
X0397666Y0109394D01*
X0397642Y0109452D01*
X0397614Y0109509D01*
X0397582Y0109564D01*
X0397547Y0109617D01*
X0397509Y0109668D01*
X0397468Y0109716D01*
X0397425Y0109762D01*
X0397378Y0109805D01*
X0397329Y0109845D01*
X0397278Y0109882D01*
X0397224Y0109916D01*
X0237086Y0103000D02*
X0234530Y0103000D01*
X0235808Y0103000D02*
X0235808Y0107600D01*
X0234530Y0106578D01*
X0232224Y0104917D02*
X0230819Y0105683D01*
X0231330Y0107600D02*
X0231412Y0107598D01*
X0231494Y0107593D01*
X0231576Y0107584D01*
X0231657Y0107572D01*
X0231738Y0107556D01*
X0231818Y0107537D01*
X0231897Y0107514D01*
X0231975Y0107488D01*
X0232052Y0107459D01*
X0232127Y0107426D01*
X0232201Y0107390D01*
X0232274Y0107352D01*
X0232345Y0107310D01*
X0232413Y0107265D01*
X0232480Y0107217D01*
X0230819Y0105684D02*
X0230765Y0105718D01*
X0230714Y0105755D01*
X0230665Y0105795D01*
X0230618Y0105838D01*
X0230575Y0105884D01*
X0230534Y0105932D01*
X0230496Y0105983D01*
X0230461Y0106036D01*
X0230429Y0106091D01*
X0230401Y0106148D01*
X0230377Y0106206D01*
X0230356Y0106266D01*
X0230339Y0106327D01*
X0230325Y0106389D01*
X0230316Y0106452D01*
X0230310Y0106515D01*
X0230308Y0106578D01*
X0230310Y0106640D01*
X0230315Y0106701D01*
X0230325Y0106762D01*
X0230338Y0106823D01*
X0230354Y0106882D01*
X0230374Y0106940D01*
X0230398Y0106997D01*
X0230425Y0107053D01*
X0230455Y0107107D01*
X0230489Y0107159D01*
X0230526Y0107208D01*
X0230565Y0107256D01*
X0230607Y0107301D01*
X0230652Y0107343D01*
X0230700Y0107383D01*
X0230749Y0107419D01*
X0230801Y0107453D01*
X0230855Y0107483D01*
X0230911Y0107510D01*
X0230968Y0107534D01*
X0231026Y0107554D01*
X0231085Y0107570D01*
X0231146Y0107583D01*
X0231207Y0107593D01*
X0231268Y0107598D01*
X0231330Y0107600D01*
X0230180Y0103639D02*
X0230244Y0103576D01*
X0230312Y0103517D01*
X0230381Y0103460D01*
X0230453Y0103406D01*
X0230527Y0103355D01*
X0230603Y0103307D01*
X0230680Y0103263D01*
X0230760Y0103222D01*
X0230841Y0103184D01*
X0230924Y0103149D01*
X0231008Y0103118D01*
X0231094Y0103091D01*
X0231180Y0103067D01*
X0231268Y0103046D01*
X0231356Y0103030D01*
X0231445Y0103017D01*
X0231534Y0103007D01*
X0231623Y0103002D01*
X0231713Y0103000D01*
X0231775Y0103002D01*
X0231836Y0103007D01*
X0231897Y0103017D01*
X0231958Y0103030D01*
X0232017Y0103046D01*
X0232075Y0103066D01*
X0232132Y0103090D01*
X0232188Y0103117D01*
X0232242Y0103147D01*
X0232294Y0103181D01*
X0232343Y0103217D01*
X0232391Y0103257D01*
X0232436Y0103299D01*
X0232478Y0103344D01*
X0232518Y0103392D01*
X0232554Y0103441D01*
X0232588Y0103493D01*
X0232618Y0103547D01*
X0232645Y0103603D01*
X0232669Y0103660D01*
X0232689Y0103718D01*
X0232705Y0103777D01*
X0232718Y0103838D01*
X0232728Y0103899D01*
X0232733Y0103960D01*
X0232735Y0104022D01*
X0232733Y0104085D01*
X0232727Y0104148D01*
X0232718Y0104211D01*
X0232704Y0104273D01*
X0232687Y0104334D01*
X0232666Y0104394D01*
X0232642Y0104452D01*
X0232614Y0104509D01*
X0232582Y0104564D01*
X0232547Y0104617D01*
X0232509Y0104668D01*
X0232468Y0104716D01*
X0232425Y0104762D01*
X0232378Y0104805D01*
X0232329Y0104845D01*
X0232278Y0104882D01*
X0232224Y0104916D01*
X0069913Y0103639D02*
X0069865Y0103743D01*
X0069819Y0103848D01*
X0069777Y0103954D01*
X0069738Y0104062D01*
X0069702Y0104171D01*
X0069670Y0104281D01*
X0069640Y0104392D01*
X0069615Y0104504D01*
X0069592Y0104616D01*
X0069573Y0104729D01*
X0069558Y0104843D01*
X0069546Y0104957D01*
X0069537Y0105071D01*
X0069532Y0105185D01*
X0069530Y0105300D01*
X0072086Y0105300D02*
X0072084Y0105415D01*
X0072079Y0105529D01*
X0072070Y0105643D01*
X0072058Y0105757D01*
X0072043Y0105871D01*
X0072024Y0105984D01*
X0072001Y0106096D01*
X0071976Y0106208D01*
X0071946Y0106319D01*
X0071914Y0106429D01*
X0071878Y0106538D01*
X0071839Y0106646D01*
X0071797Y0106752D01*
X0071751Y0106857D01*
X0071703Y0106961D01*
X0071830Y0106578D02*
X0069786Y0104022D01*
X0070808Y0103000D02*
X0070867Y0103002D01*
X0070925Y0103007D01*
X0070983Y0103016D01*
X0071040Y0103029D01*
X0071097Y0103045D01*
X0071152Y0103065D01*
X0071206Y0103088D01*
X0071258Y0103114D01*
X0071309Y0103144D01*
X0071358Y0103176D01*
X0071405Y0103212D01*
X0071449Y0103250D01*
X0071491Y0103291D01*
X0071530Y0103335D01*
X0071567Y0103381D01*
X0071600Y0103429D01*
X0071631Y0103479D01*
X0071658Y0103531D01*
X0071682Y0103584D01*
X0071703Y0103639D01*
X0070808Y0103000D02*
X0070749Y0103002D01*
X0070691Y0103007D01*
X0070633Y0103016D01*
X0070576Y0103029D01*
X0070519Y0103045D01*
X0070464Y0103065D01*
X0070410Y0103088D01*
X0070358Y0103114D01*
X0070307Y0103144D01*
X0070258Y0103176D01*
X0070211Y0103212D01*
X0070167Y0103250D01*
X0070125Y0103291D01*
X0070086Y0103335D01*
X0070049Y0103381D01*
X0070016Y0103429D01*
X0069985Y0103479D01*
X0069958Y0103531D01*
X0069934Y0103584D01*
X0069913Y0103639D01*
X0071703Y0103639D02*
X0071751Y0103743D01*
X0071797Y0103848D01*
X0071839Y0103954D01*
X0071878Y0104062D01*
X0071914Y0104171D01*
X0071946Y0104281D01*
X0071976Y0104392D01*
X0072001Y0104504D01*
X0072024Y0104616D01*
X0072043Y0104729D01*
X0072058Y0104843D01*
X0072070Y0104957D01*
X0072079Y0105071D01*
X0072084Y0105185D01*
X0072086Y0105300D01*
X0069530Y0105300D02*
X0069532Y0105415D01*
X0069537Y0105529D01*
X0069546Y0105643D01*
X0069558Y0105757D01*
X0069573Y0105871D01*
X0069592Y0105984D01*
X0069615Y0106096D01*
X0069640Y0106208D01*
X0069670Y0106319D01*
X0069702Y0106429D01*
X0069738Y0106538D01*
X0069777Y0106646D01*
X0069819Y0106752D01*
X0069865Y0106857D01*
X0069913Y0106961D01*
X0070808Y0107600D02*
X0070867Y0107598D01*
X0070925Y0107593D01*
X0070983Y0107584D01*
X0071040Y0107571D01*
X0071097Y0107555D01*
X0071152Y0107535D01*
X0071206Y0107512D01*
X0071258Y0107486D01*
X0071309Y0107456D01*
X0071358Y0107424D01*
X0071405Y0107388D01*
X0071449Y0107350D01*
X0071491Y0107309D01*
X0071530Y0107265D01*
X0071567Y0107219D01*
X0071600Y0107171D01*
X0071631Y0107121D01*
X0071658Y0107069D01*
X0071682Y0107016D01*
X0071703Y0106961D01*
X0070808Y0107600D02*
X0070749Y0107598D01*
X0070691Y0107593D01*
X0070633Y0107584D01*
X0070576Y0107571D01*
X0070519Y0107555D01*
X0070464Y0107535D01*
X0070410Y0107512D01*
X0070358Y0107486D01*
X0070307Y0107456D01*
X0070258Y0107424D01*
X0070211Y0107388D01*
X0070167Y0107350D01*
X0070125Y0107309D01*
X0070086Y0107265D01*
X0070049Y0107219D01*
X0070016Y0107171D01*
X0069985Y0107121D01*
X0069958Y0107069D01*
X0069934Y0107016D01*
X0069913Y0106961D01*
X0067224Y0104917D02*
X0065819Y0105683D01*
X0066330Y0107600D02*
X0066412Y0107598D01*
X0066494Y0107593D01*
X0066576Y0107584D01*
X0066657Y0107572D01*
X0066738Y0107556D01*
X0066818Y0107537D01*
X0066897Y0107514D01*
X0066975Y0107488D01*
X0067052Y0107459D01*
X0067127Y0107426D01*
X0067201Y0107390D01*
X0067274Y0107352D01*
X0067345Y0107310D01*
X0067413Y0107265D01*
X0067480Y0107217D01*
X0065819Y0105684D02*
X0065765Y0105718D01*
X0065714Y0105755D01*
X0065665Y0105795D01*
X0065618Y0105838D01*
X0065575Y0105884D01*
X0065534Y0105932D01*
X0065496Y0105983D01*
X0065461Y0106036D01*
X0065429Y0106091D01*
X0065401Y0106148D01*
X0065377Y0106206D01*
X0065356Y0106266D01*
X0065339Y0106327D01*
X0065325Y0106389D01*
X0065316Y0106452D01*
X0065310Y0106515D01*
X0065308Y0106578D01*
X0065310Y0106640D01*
X0065315Y0106701D01*
X0065325Y0106762D01*
X0065338Y0106823D01*
X0065354Y0106882D01*
X0065374Y0106940D01*
X0065398Y0106997D01*
X0065425Y0107053D01*
X0065455Y0107107D01*
X0065489Y0107159D01*
X0065526Y0107208D01*
X0065565Y0107256D01*
X0065607Y0107301D01*
X0065652Y0107343D01*
X0065700Y0107383D01*
X0065749Y0107419D01*
X0065801Y0107453D01*
X0065855Y0107483D01*
X0065911Y0107510D01*
X0065968Y0107534D01*
X0066026Y0107554D01*
X0066085Y0107570D01*
X0066146Y0107583D01*
X0066207Y0107593D01*
X0066268Y0107598D01*
X0066330Y0107600D01*
X0065180Y0103639D02*
X0065244Y0103576D01*
X0065312Y0103517D01*
X0065381Y0103460D01*
X0065453Y0103406D01*
X0065527Y0103355D01*
X0065603Y0103307D01*
X0065680Y0103263D01*
X0065760Y0103222D01*
X0065841Y0103184D01*
X0065924Y0103149D01*
X0066008Y0103118D01*
X0066094Y0103091D01*
X0066180Y0103067D01*
X0066268Y0103046D01*
X0066356Y0103030D01*
X0066445Y0103017D01*
X0066534Y0103007D01*
X0066623Y0103002D01*
X0066713Y0103000D01*
X0066775Y0103002D01*
X0066836Y0103007D01*
X0066897Y0103017D01*
X0066958Y0103030D01*
X0067017Y0103046D01*
X0067075Y0103066D01*
X0067132Y0103090D01*
X0067188Y0103117D01*
X0067242Y0103147D01*
X0067294Y0103181D01*
X0067343Y0103217D01*
X0067391Y0103257D01*
X0067436Y0103299D01*
X0067478Y0103344D01*
X0067518Y0103392D01*
X0067554Y0103441D01*
X0067588Y0103493D01*
X0067618Y0103547D01*
X0067645Y0103603D01*
X0067669Y0103660D01*
X0067689Y0103718D01*
X0067705Y0103777D01*
X0067718Y0103838D01*
X0067728Y0103899D01*
X0067733Y0103960D01*
X0067735Y0104022D01*
X0067733Y0104085D01*
X0067727Y0104148D01*
X0067718Y0104211D01*
X0067704Y0104273D01*
X0067687Y0104334D01*
X0067666Y0104394D01*
X0067642Y0104452D01*
X0067614Y0104509D01*
X0067582Y0104564D01*
X0067547Y0104617D01*
X0067509Y0104668D01*
X0067468Y0104716D01*
X0067425Y0104762D01*
X0067378Y0104805D01*
X0067329Y0104845D01*
X0067278Y0104882D01*
X0067224Y0104916D01*
D13*
X0030480Y0111800D02*
X0025480Y0111800D01*
X0025480Y0081800D02*
X0030480Y0081800D01*
X0109980Y0091800D02*
X0109980Y0111800D01*
X0112980Y0111800D01*
X0112980Y0112800D01*
X0112980Y0111800D02*
X0115980Y0111800D01*
X0115980Y0091800D01*
X0112980Y0091800D01*
X0112980Y0090800D01*
X0112980Y0091800D02*
X0109980Y0091800D01*
X0189980Y0126800D02*
X0192980Y0126800D01*
X0192980Y0125800D01*
X0192980Y0126800D02*
X0195980Y0126800D01*
X0195980Y0146800D01*
X0192980Y0146800D01*
X0192980Y0147800D01*
X0192980Y0146800D02*
X0189980Y0146800D01*
X0189980Y0126800D01*
X0390263Y0082548D02*
X0390263Y0079398D01*
X0400106Y0079398D01*
X0400106Y0074674D01*
X0404043Y0082548D02*
X0390263Y0082548D01*
X0419791Y0074674D02*
X0419791Y0058926D01*
X0404043Y0051052D02*
X0390263Y0051052D01*
X0390263Y0054202D01*
X0400106Y0054202D01*
X0400106Y0058926D01*
X0404043Y0042548D02*
X0390263Y0042548D01*
X0390263Y0039398D01*
X0400106Y0039398D01*
X0400106Y0034674D01*
X0419791Y0034674D02*
X0419791Y0018926D01*
X0404043Y0011052D02*
X0390263Y0011052D01*
X0390263Y0014202D01*
X0400106Y0014202D01*
X0400106Y0018926D01*
X0340697Y0009202D02*
X0340697Y0006052D01*
X0326917Y0006052D01*
X0330854Y0009202D02*
X0330854Y0013926D01*
X0330854Y0009202D02*
X0340697Y0009202D01*
X0311169Y0013926D02*
X0311169Y0029674D01*
X0326917Y0037548D02*
X0340697Y0037548D01*
X0340697Y0034398D01*
X0330854Y0034398D01*
X0330854Y0029674D01*
D14*
X0208980Y0151800D02*
X0208987Y0152389D01*
X0209009Y0152978D01*
X0209045Y0153566D01*
X0209096Y0154152D01*
X0209160Y0154738D01*
X0209240Y0155322D01*
X0209333Y0155903D01*
X0209441Y0156482D01*
X0209563Y0157058D01*
X0209699Y0157632D01*
X0209849Y0158201D01*
X0210013Y0158767D01*
X0210191Y0159328D01*
X0210383Y0159885D01*
X0210588Y0160437D01*
X0210807Y0160984D01*
X0211039Y0161526D01*
X0211284Y0162061D01*
X0211543Y0162591D01*
X0211814Y0163114D01*
X0212098Y0163630D01*
X0212395Y0164138D01*
X0212704Y0164640D01*
X0213025Y0165134D01*
X0213358Y0165619D01*
X0213703Y0166097D01*
X0214060Y0166566D01*
X0214428Y0167025D01*
X0214807Y0167476D01*
X0215197Y0167917D01*
X0215598Y0168349D01*
X0216009Y0168771D01*
X0216431Y0169182D01*
X0216863Y0169583D01*
X0217304Y0169973D01*
X0217755Y0170352D01*
X0218214Y0170720D01*
X0218683Y0171077D01*
X0219161Y0171422D01*
X0219646Y0171755D01*
X0220140Y0172076D01*
X0220642Y0172385D01*
X0221150Y0172682D01*
X0221666Y0172966D01*
X0222189Y0173237D01*
X0222719Y0173496D01*
X0223254Y0173741D01*
X0223796Y0173973D01*
X0224343Y0174192D01*
X0224895Y0174397D01*
X0225452Y0174589D01*
X0226013Y0174767D01*
X0226579Y0174931D01*
X0227148Y0175081D01*
X0227722Y0175217D01*
X0228298Y0175339D01*
X0228877Y0175447D01*
X0229458Y0175540D01*
X0230042Y0175620D01*
X0230628Y0175684D01*
X0231214Y0175735D01*
X0231802Y0175771D01*
X0232391Y0175793D01*
X0232980Y0175800D01*
X0233569Y0175793D01*
X0234158Y0175771D01*
X0234746Y0175735D01*
X0235332Y0175684D01*
X0235918Y0175620D01*
X0236502Y0175540D01*
X0237083Y0175447D01*
X0237662Y0175339D01*
X0238238Y0175217D01*
X0238812Y0175081D01*
X0239381Y0174931D01*
X0239947Y0174767D01*
X0240508Y0174589D01*
X0241065Y0174397D01*
X0241617Y0174192D01*
X0242164Y0173973D01*
X0242706Y0173741D01*
X0243241Y0173496D01*
X0243771Y0173237D01*
X0244294Y0172966D01*
X0244810Y0172682D01*
X0245318Y0172385D01*
X0245820Y0172076D01*
X0246314Y0171755D01*
X0246799Y0171422D01*
X0247277Y0171077D01*
X0247746Y0170720D01*
X0248205Y0170352D01*
X0248656Y0169973D01*
X0249097Y0169583D01*
X0249529Y0169182D01*
X0249951Y0168771D01*
X0250362Y0168349D01*
X0250763Y0167917D01*
X0251153Y0167476D01*
X0251532Y0167025D01*
X0251900Y0166566D01*
X0252257Y0166097D01*
X0252602Y0165619D01*
X0252935Y0165134D01*
X0253256Y0164640D01*
X0253565Y0164138D01*
X0253862Y0163630D01*
X0254146Y0163114D01*
X0254417Y0162591D01*
X0254676Y0162061D01*
X0254921Y0161526D01*
X0255153Y0160984D01*
X0255372Y0160437D01*
X0255577Y0159885D01*
X0255769Y0159328D01*
X0255947Y0158767D01*
X0256111Y0158201D01*
X0256261Y0157632D01*
X0256397Y0157058D01*
X0256519Y0156482D01*
X0256627Y0155903D01*
X0256720Y0155322D01*
X0256800Y0154738D01*
X0256864Y0154152D01*
X0256915Y0153566D01*
X0256951Y0152978D01*
X0256973Y0152389D01*
X0256980Y0151800D01*
X0256973Y0151211D01*
X0256951Y0150622D01*
X0256915Y0150034D01*
X0256864Y0149448D01*
X0256800Y0148862D01*
X0256720Y0148278D01*
X0256627Y0147697D01*
X0256519Y0147118D01*
X0256397Y0146542D01*
X0256261Y0145968D01*
X0256111Y0145399D01*
X0255947Y0144833D01*
X0255769Y0144272D01*
X0255577Y0143715D01*
X0255372Y0143163D01*
X0255153Y0142616D01*
X0254921Y0142074D01*
X0254676Y0141539D01*
X0254417Y0141009D01*
X0254146Y0140486D01*
X0253862Y0139970D01*
X0253565Y0139462D01*
X0253256Y0138960D01*
X0252935Y0138466D01*
X0252602Y0137981D01*
X0252257Y0137503D01*
X0251900Y0137034D01*
X0251532Y0136575D01*
X0251153Y0136124D01*
X0250763Y0135683D01*
X0250362Y0135251D01*
X0249951Y0134829D01*
X0249529Y0134418D01*
X0249097Y0134017D01*
X0248656Y0133627D01*
X0248205Y0133248D01*
X0247746Y0132880D01*
X0247277Y0132523D01*
X0246799Y0132178D01*
X0246314Y0131845D01*
X0245820Y0131524D01*
X0245318Y0131215D01*
X0244810Y0130918D01*
X0244294Y0130634D01*
X0243771Y0130363D01*
X0243241Y0130104D01*
X0242706Y0129859D01*
X0242164Y0129627D01*
X0241617Y0129408D01*
X0241065Y0129203D01*
X0240508Y0129011D01*
X0239947Y0128833D01*
X0239381Y0128669D01*
X0238812Y0128519D01*
X0238238Y0128383D01*
X0237662Y0128261D01*
X0237083Y0128153D01*
X0236502Y0128060D01*
X0235918Y0127980D01*
X0235332Y0127916D01*
X0234746Y0127865D01*
X0234158Y0127829D01*
X0233569Y0127807D01*
X0232980Y0127800D01*
X0232391Y0127807D01*
X0231802Y0127829D01*
X0231214Y0127865D01*
X0230628Y0127916D01*
X0230042Y0127980D01*
X0229458Y0128060D01*
X0228877Y0128153D01*
X0228298Y0128261D01*
X0227722Y0128383D01*
X0227148Y0128519D01*
X0226579Y0128669D01*
X0226013Y0128833D01*
X0225452Y0129011D01*
X0224895Y0129203D01*
X0224343Y0129408D01*
X0223796Y0129627D01*
X0223254Y0129859D01*
X0222719Y0130104D01*
X0222189Y0130363D01*
X0221666Y0130634D01*
X0221150Y0130918D01*
X0220642Y0131215D01*
X0220140Y0131524D01*
X0219646Y0131845D01*
X0219161Y0132178D01*
X0218683Y0132523D01*
X0218214Y0132880D01*
X0217755Y0133248D01*
X0217304Y0133627D01*
X0216863Y0134017D01*
X0216431Y0134418D01*
X0216009Y0134829D01*
X0215598Y0135251D01*
X0215197Y0135683D01*
X0214807Y0136124D01*
X0214428Y0136575D01*
X0214060Y0137034D01*
X0213703Y0137503D01*
X0213358Y0137981D01*
X0213025Y0138466D01*
X0212704Y0138960D01*
X0212395Y0139462D01*
X0212098Y0139970D01*
X0211814Y0140486D01*
X0211543Y0141009D01*
X0211284Y0141539D01*
X0211039Y0142074D01*
X0210807Y0142616D01*
X0210588Y0143163D01*
X0210383Y0143715D01*
X0210191Y0144272D01*
X0210013Y0144833D01*
X0209849Y0145399D01*
X0209699Y0145968D01*
X0209563Y0146542D01*
X0209441Y0147118D01*
X0209333Y0147697D01*
X0209240Y0148278D01*
X0209160Y0148862D01*
X0209096Y0149448D01*
X0209045Y0150034D01*
X0209009Y0150622D01*
X0208987Y0151211D01*
X0208980Y0151800D01*
M02*
