G75*
%MOIN*%
%OFA0B0*%
%FSLAX25Y25*%
%IPPOS*%
%LPD*%
%AMOC8*
5,1,8,0,0,1.08239X$1,22.5*
%
%ADD10OC8,0.07800*%
%ADD11C,0.23800*%
%ADD12C,0.07200*%
%ADD13R,0.07200X0.07200*%
%ADD14R,0.18910X0.04737*%
%ADD15R,0.14186X0.07099*%
%ADD16C,0.08200*%
%ADD17C,0.08200*%
%ADD18C,0.10800*%
D10*
X0117980Y0031800D03*
X0127980Y0031800D03*
X0137980Y0031800D03*
X0147980Y0031800D03*
X0157980Y0031800D03*
X0167980Y0031800D03*
X0177980Y0031800D03*
X0187980Y0031800D03*
X0282980Y0046800D03*
X0292980Y0046800D03*
X0302980Y0046800D03*
X0312980Y0046800D03*
X0322980Y0046800D03*
X0332980Y0046800D03*
X0342980Y0046800D03*
X0352980Y0046800D03*
D11*
X0381308Y0106410D03*
X0414609Y0106410D03*
X0249609Y0106410D03*
X0216308Y0106410D03*
X0084609Y0106410D03*
X0051308Y0106410D03*
D12*
X0127980Y0101800D03*
X0127980Y0091800D03*
X0127980Y0081800D03*
X0127980Y0071800D03*
X0152980Y0061800D03*
X0162980Y0061800D03*
X0177980Y0061800D03*
X0177980Y0051800D03*
X0162980Y0051800D03*
X0152980Y0051800D03*
X0142980Y0051800D03*
X0127980Y0051800D03*
X0177980Y0071800D03*
X0177980Y0081800D03*
X0177980Y0091800D03*
X0177980Y0101800D03*
X0177980Y0111800D03*
X0177980Y0121800D03*
X0177980Y0131800D03*
X0177980Y0141800D03*
X0127980Y0141800D03*
X0127980Y0131800D03*
X0127980Y0121800D03*
X0127980Y0111800D03*
D13*
X0127980Y0061800D03*
X0142980Y0061800D03*
D14*
X0337547Y0025737D03*
X0337547Y0017863D03*
X0393413Y0022863D03*
X0393413Y0030737D03*
X0393413Y0062863D03*
X0393413Y0070737D03*
D15*
X0413886Y0080186D03*
X0413886Y0053414D03*
X0413886Y0040186D03*
X0413886Y0013414D03*
X0317074Y0008414D03*
X0317074Y0035186D03*
D16*
X0031680Y0086800D02*
X0024280Y0086800D01*
X0024280Y0096800D02*
X0031680Y0096800D01*
X0031680Y0106800D02*
X0024280Y0106800D01*
D17*
X0112980Y0116800D03*
X0112980Y0086800D03*
X0192980Y0121800D03*
X0192980Y0151800D03*
D18*
X0223137Y0151800D03*
X0242823Y0151800D03*
M02*
