%
M48
M72
T01C0.02362
T02C0.03543
T03C0.03937
T04C0.04000
T05C0.04400
T06C0.12500
%
T01
X72980Y91800
X332980Y11800
X347980Y11800
X382980Y36800
X397980Y41800
X382980Y76800
X397980Y81800
T02
X192980Y121800
X192980Y151800
X112980Y116800
X112980Y86800
T03
X223137Y151800
X242823Y151800
T04
X117980Y31800
X127980Y31800
X137980Y31800
X147980Y31800
X157980Y31800
X167980Y31800
X177980Y31800
X187980Y31800
X177980Y51800
X162980Y51800
X152980Y51800
X142980Y51800
X127980Y51800
X127980Y61800
X142980Y61800
X152980Y61800
X162980Y61800
X177980Y61800
X177980Y71800
X177980Y81800
X177980Y91800
X177980Y101800
X177980Y111800
X177980Y121800
X177980Y131800
X177980Y141800
X127980Y141800
X127980Y131800
X127980Y121800
X127980Y111800
X127980Y101800
X127980Y91800
X127980Y81800
X127980Y71800
X282980Y46800
X292980Y46800
X302980Y46800
X312980Y46800
X322980Y46800
X332980Y46800
X342980Y46800
X352980Y46800
T05
X27980Y86800
X27980Y96800
X27980Y106800
T06
X51308Y106410
X84609Y106410
X216308Y106410
X249609Y106410
X381308Y106410
X414609Y106410
M30
